<svg width="32" height="31" viewBox="0 0 32 31" fill="none" xmlns="http://www.w3.org/2000/svg">
<path d="M13.6737 28.6903L15.2347 30.2513C15.391 30.4084 15.5767 30.5331 15.7812 30.6182C15.9858 30.7032 16.2052 30.747 16.4267 30.747C16.6483 30.747 16.8677 30.7032 17.0722 30.6182C17.2768 30.5331 17.4625 30.4084 17.6187 30.2513L31.2827 16.5903C31.4398 16.4341 31.5645 16.2484 31.6496 16.0438C31.7347 15.8392 31.7785 15.6199 31.7785 15.3983C31.7785 15.1768 31.7347 14.9574 31.6496 14.7528C31.5645 14.5483 31.4398 14.3625 31.2827 14.2063L17.6187 0.533314C17.4625 0.376212 17.2768 0.25154 17.0722 0.166466C16.8677 0.0813934 16.6483 0.0375977 16.4267 0.0375977C16.2052 0.0375977 15.9858 0.0813934 15.7812 0.166466C15.5767 0.25154 15.391 0.376212 15.2347 0.533314L13.6737 2.09031C13.5152 2.24941 13.3899 2.43854 13.3054 2.64663C13.2208 2.85472 13.1786 3.07759 13.1812 3.30219C13.1838 3.5268 13.2312 3.74863 13.3205 3.9547C13.4099 4.16077 13.5395 4.34694 13.7017 4.50231L22.1747 12.5743H1.96673C1.74496 12.5742 1.52535 12.6179 1.32052 12.7029C1.11569 12.7879 0.92968 12.9126 0.773188 13.0697C0.616696 13.2269 0.492805 13.4134 0.408636 13.6186C0.324467 13.8238 0.28168 14.0435 0.282734 14.2653V16.5153C0.282206 16.7371 0.325514 16.9568 0.410169 17.1618C0.494825 17.3667 0.619157 17.553 0.776021 17.7097C0.932885 17.8665 1.11919 17.9907 1.32422 18.0753C1.52925 18.1598 1.74896 18.203 1.97073 18.2023H22.1747L13.7017 26.2743C13.5374 26.4289 13.406 26.615 13.3153 26.8215C13.2246 27.0281 13.1765 27.2508 13.1739 27.4764C13.1713 27.7019 13.2142 27.9257 13.3001 28.1343C13.386 28.3429 13.5131 28.532 13.6737 28.6903Z" fill="#11B0D7"/>
</svg>
