<svg width="14" height="11" viewBox="0 0 14 11" fill="none" xmlns="http://www.w3.org/2000/svg">
<path d="M7.61481 10.2561C7.5259 10.2299 7.44129 10.1911 7.36377 10.1403C7.26484 10.0827 7.18043 10.0028 7.117 9.90744C7.05357 9.8121 7.01283 9.70358 6.99786 9.59005C6.9829 9.47653 6.99414 9.36116 7.0307 9.25265C7.06726 9.14414 7.12819 9.0454 7.2088 8.96408L9.98779 6.26437H0.987793V4.26437H9.98779L7.20978 1.64035C7.12915 1.55884 7.06824 1.45995 7.03168 1.35128C6.99511 1.24262 6.98388 1.12706 6.99884 1.01339C7.0138 0.899723 7.05455 0.790541 7.11798 0.695034C7.18141 0.599527 7.26584 0.52 7.36481 0.462124C7.5784 0.321864 7.83335 0.25863 8.08777 0.282436C8.34219 0.306242 8.5809 0.415533 8.76477 0.592983L12.5018 4.52316C12.6436 4.58261 12.7657 4.68108 12.8542 4.80685C12.9426 4.93263 12.9938 5.08054 13.0018 5.2341C12.9972 5.36826 12.9561 5.49859 12.8828 5.61105C12.8474 5.68883 12.8001 5.76056 12.7428 5.82394L8.76282 10.009C8.64664 10.1259 8.50235 10.211 8.34381 10.2561H7.61481Z" fill="#00647C"/>
</svg>
