<svg width="15" height="13" viewBox="0 0 15 13" fill="none" xmlns="http://www.w3.org/2000/svg">
<path d="M8.11699 12.1932C8.01526 12.1592 7.91765 12.1139 7.82599 12.0582C7.71229 11.9902 7.61546 11.8974 7.54278 11.7867C7.47009 11.6759 7.42343 11.5502 7.4063 11.4188C7.38917 11.2875 7.40202 11.1539 7.44388 11.0283C7.48574 10.9026 7.55552 10.788 7.64799 10.6932L10.875 7.55819H0.416992V5.23119H10.881L7.64799 2.17419C7.55458 2.07943 7.48408 1.96457 7.44185 1.83838C7.39963 1.7122 7.38681 1.57803 7.40437 1.44614C7.42193 1.31424 7.4694 1.18811 7.54317 1.07737C7.61694 0.966626 7.71505 0.874214 7.82999 0.80719C8.0778 0.64426 8.37366 0.570453 8.66896 0.597893C8.96426 0.625334 9.24145 0.752389 9.45499 0.95819L13.797 5.52719C13.9631 5.5958 14.1063 5.71011 14.21 5.85685C14.3137 6.00359 14.3737 6.17673 14.383 6.35619C14.3779 6.51205 14.3294 6.66339 14.243 6.79319C14.2044 6.88464 14.1495 6.96833 14.081 7.04019L9.45499 11.9072C9.31965 12.0436 9.15165 12.1431 8.96699 12.1962L8.11699 12.1932Z" fill="#E1221A"/>
</svg>
