<svg width="13" height="11" viewBox="0 0 13 11" fill="none" xmlns="http://www.w3.org/2000/svg">
<path d="M6.65582 10.8983C6.56692 10.8722 6.4823 10.8334 6.40479 10.7826C6.30585 10.725 6.22145 10.645 6.15802 10.5497C6.09459 10.4544 6.05384 10.3459 6.03888 10.2323C6.02392 10.1188 6.03515 10.0034 6.07172 9.89492C6.10828 9.78641 6.1692 9.68767 6.24982 9.60635L9.02881 6.90664H0.0288086V4.90664H9.02881L6.25079 2.28262C6.17016 2.20111 6.10926 2.10222 6.07269 1.99356C6.03613 1.88489 6.0249 1.76934 6.03986 1.65567C6.05481 1.542 6.09557 1.43281 6.159 1.33731C6.22242 1.2418 6.30685 1.16227 6.40582 1.1044C6.61942 0.964137 6.87437 0.900903 7.12878 0.924709C7.3832 0.948515 7.62192 1.05781 7.80579 1.23526L11.5428 5.16543C11.6846 5.22488 11.8068 5.32335 11.8952 5.44912C11.9837 5.5749 12.0348 5.72282 12.0428 5.87637C12.0382 6.01054 11.9971 6.14086 11.9238 6.25332C11.8884 6.3311 11.8412 6.40284 11.7838 6.46621L7.80383 10.6513C7.68766 10.7682 7.54336 10.8533 7.38483 10.8983H6.65582Z" fill="white"/>
</svg>
