<svg width="32" height="31" viewBox="0 0 32 31" fill="none" xmlns="http://www.w3.org/2000/svg">
<path d="M18.388 28.6903L16.827 30.2513C16.6708 30.4084 16.4851 30.5331 16.2805 30.6182C16.0759 30.7032 15.8566 30.747 15.635 30.747C15.4135 30.747 15.1941 30.7032 14.9895 30.6182C14.785 30.5331 14.5992 30.4084 14.443 30.2513L0.775013 16.5903C0.617911 16.4341 0.493239 16.2484 0.408166 16.0438C0.323093 15.8392 0.279297 15.6199 0.279297 15.3983C0.279297 15.1768 0.323093 14.9574 0.408166 14.7528C0.493239 14.5483 0.617911 14.3625 0.775013 14.2063L14.444 0.533314C14.6002 0.376212 14.786 0.25154 14.9905 0.166466C15.1951 0.0813934 15.4145 0.0375977 15.636 0.0375977C15.8576 0.0375977 16.0769 0.0813934 16.2815 0.166466C16.4861 0.25154 16.6718 0.376212 16.828 0.533314L18.388 2.09031C18.5466 2.24941 18.6718 2.43854 18.7564 2.64663C18.841 2.85472 18.8832 3.07759 18.8806 3.30219C18.878 3.5268 18.8306 3.74863 18.7412 3.9547C18.6518 4.16077 18.5222 4.34694 18.36 4.50231L9.88301 12.5783H30.096C30.3177 12.5778 30.5373 12.6211 30.7422 12.7057C30.9471 12.7902 31.1333 12.9145 31.2901 13.0712C31.4468 13.228 31.5711 13.4142 31.6557 13.6191C31.7403 13.824 31.7835 14.0436 31.783 14.2653V16.5153C31.7837 16.7371 31.7405 16.9568 31.656 17.1618C31.5714 17.3669 31.4472 17.5532 31.2904 17.71C31.1337 17.8669 30.9474 17.9912 30.7425 18.0759C30.5375 18.1605 30.3178 18.2038 30.096 18.2033H9.88301L18.356 26.2753C18.5204 26.4296 18.652 26.6154 18.743 26.8217C18.8339 27.028 18.8824 27.2506 18.8853 27.476C18.8883 27.7015 18.8458 27.9252 18.7604 28.1338C18.6749 28.3425 18.5483 28.5317 18.388 28.6903Z" fill="#11B0D7"/>
</svg>
