<svg width="20" height="18" viewBox="0 0 20 18" fill="none" xmlns="http://www.w3.org/2000/svg">
<path d="M17 2.51524H16V1.57324C16 1.30803 15.8946 1.05367 15.7071 0.866135C15.5196 0.678598 15.2652 0.573242 15 0.573242C14.7348 0.573242 14.4804 0.678598 14.2929 0.866135C14.1054 1.05367 14 1.30803 14 1.57324V2.51524H6V1.57324C6 1.30803 5.89464 1.05367 5.70711 0.866135C5.51957 0.678598 5.26522 0.573242 5 0.573242C4.73478 0.573242 4.48043 0.678598 4.29289 0.866135C4.10536 1.05367 4 1.30803 4 1.57324V2.51524H3C2.22762 2.49289 1.47793 2.77791 0.915483 3.30773C0.353033 3.83756 0.0237821 4.56891 0 5.34124V14.7612C0.0237821 15.5336 0.353033 16.2649 0.915483 16.7948C1.47793 17.3246 2.22762 17.6096 3 17.5872H17C17.7724 17.6096 18.5221 17.3246 19.0845 16.7948C19.647 16.2649 19.9762 15.5336 20 14.7612V5.34124C19.9762 4.56891 19.647 3.83756 19.0845 3.30773C18.5221 2.77791 17.7724 2.49289 17 2.51524ZM3 4.39924H4V5.34124C4 5.60646 4.10536 5.86081 4.29289 6.04835C4.48043 6.23588 4.73478 6.34124 5 6.34124C5.26522 6.34124 5.51957 6.23588 5.70711 6.04835C5.89464 5.86081 6 5.60646 6 5.34124V4.39924H14V5.34124C14 5.60646 14.1054 5.86081 14.2929 6.04835C14.4804 6.23588 14.7348 6.34124 15 6.34124C15.2652 6.34124 15.5196 6.23588 15.7071 6.04835C15.8946 5.86081 16 5.60646 16 5.34124V4.39924H17C17.2575 4.3917 17.5074 4.48668 17.6949 4.66331C17.8824 4.83993 17.9922 5.08377 18 5.34124V7.22524H2V5.34124C2.00784 5.08377 2.11756 4.83993 2.30507 4.66331C2.49257 4.48668 2.74252 4.3917 3 4.39924ZM17 15.6992H3C2.74252 15.7068 2.49257 15.6118 2.30507 15.4352C2.11756 15.2585 2.00784 15.0147 2 14.7572V9.10924H18V14.7612C17.9922 15.0187 17.8824 15.2625 17.6949 15.4392C17.5074 15.6158 17.2575 15.7108 17 15.7032V15.6992Z" fill="#CC3B3A"/>
</svg>
