<svg width="23" height="24" viewBox="0 0 23 24" fill="none" xmlns="http://www.w3.org/2000/svg">
<path d="M14.0119 5.27383C14.9922 5.46498 15.8931 5.94433 16.5992 6.65052C17.3054 7.35671 17.7848 8.25759 17.9759 9.23783M14.0119 1.25983C16.0481 1.48611 17.9468 2.39796 19.3963 3.84569C20.8459 5.29341 21.7601 7.19097 21.9889 9.22683M20.9889 17.2348V20.2448C20.9901 20.5243 20.9328 20.801 20.8208 21.0571C20.7089 21.3132 20.5446 21.5431 20.3386 21.732C20.1326 21.921 19.8895 22.0648 19.6247 22.1543C19.3599 22.2438 19.0793 22.277 18.8009 22.2518C15.713 21.9162 12.7469 20.861 10.1409 19.1708C7.71629 17.6301 5.66062 15.5745 4.11994 13.1498C2.42392 10.532 1.36842 7.55155 1.03894 4.44983C1.01379 4.17204 1.04681 3.89206 1.1359 3.62775C1.22499 3.36344 1.3682 3.12061 1.55638 2.91473C1.74457 2.70886 1.9736 2.54447 2.22886 2.43205C2.48413 2.31964 2.76002 2.26166 3.03894 2.26183H6.04894C6.53523 2.25828 7.00627 2.43143 7.37451 2.74908C7.74274 3.06673 7.98311 3.50727 8.05094 3.98883C8.17719 4.95221 8.41202 5.89823 8.75094 6.80883C8.88582 7.16799 8.91493 7.55829 8.83482 7.93349C8.75471 8.30869 8.56874 8.65307 8.29894 8.92583L7.02794 10.2008C8.45644 12.7132 10.5366 14.7933 13.0489 16.2218L14.3229 14.9478C14.5957 14.678 14.9401 14.4921 15.3153 14.4119C15.6905 14.3318 16.0808 14.3609 16.4399 14.4958C17.3505 14.8347 18.2966 15.0696 19.2599 15.1958C19.7477 15.2646 20.1932 15.5104 20.5115 15.8864C20.8297 16.2624 20.9986 16.7424 20.9859 17.2348H20.9889Z" stroke="white" stroke-width="2" stroke-linecap="round" stroke-linejoin="round"/>
</svg>
