<svg width="95" height="95" viewBox="0 0 95 95" fill="none" xmlns="http://www.w3.org/2000/svg">
<path d="M85.4982 84.58C85.4981 86.5101 84.8289 88.3805 83.6044 89.8724C82.38 91.3644 80.6761 92.3857 78.7831 92.7622C76.8901 93.1387 74.925 92.8472 73.2228 91.9374C71.5207 91.0275 70.1866 89.5556 69.448 87.7724C68.7094 85.9892 68.6119 84.0051 69.1722 82.1581C69.7325 80.3111 70.9159 78.7156 72.5207 77.6433C74.1256 76.571 76.0525 76.0883 77.9733 76.2775C79.8942 76.4667 81.6899 77.316 83.0547 78.6808C84.6141 80.2488 85.4921 82.3686 85.4982 84.58Z" fill="#232C3B"/>
<path d="M26.173 84.58C26.1729 86.5101 25.5037 88.3805 24.2792 89.8724C23.0548 91.3644 21.3509 92.3857 19.4579 92.7622C17.5649 93.1387 15.5998 92.8472 13.8977 91.9374C12.1955 91.0275 10.8614 89.5556 10.1228 87.7724C9.38421 85.9892 9.28675 84.0051 9.84704 82.1581C10.4073 80.3111 11.5907 78.7156 13.1955 77.6433C14.8004 76.571 16.7273 76.0883 18.6481 76.2775C20.569 76.4667 22.3647 77.316 23.7295 78.6808C25.289 80.2487 26.1671 82.3686 26.173 84.58Z" fill="#232C3B"/>
<path d="M92.9137 9.49683V26.182H76.2285V9.49683H92.9137Z" fill="#85140F"/>
<path d="M92.9137 26.1819H76.2285V33.5975H92.9137V26.1819Z" fill="#232C3B"/>
<path d="M55.8353 28.0358C63.0025 28.0358 68.8126 22.2256 68.8126 15.0584C68.8126 7.89121 63.0025 2.08105 55.8353 2.08105C48.6681 2.08105 42.8579 7.89121 42.8579 15.0584C42.8579 22.2256 48.6681 28.0358 55.8353 28.0358Z" fill="#11B0D7"/>
<path d="M64.3632 42.8672L69.925 55.8445H47.4927V42.8672H64.3632Z" fill="black" fill-opacity="0.41"/>
<path d="M47.4928 42.8672V55.8445H25.0605L30.6223 42.8672H47.4928Z" fill="black" fill-opacity="0.41"/>
<path d="M92.9137 63.26V70.6756H89.2059C88.2225 70.6756 87.2794 70.285 86.584 69.5896C85.8887 68.8943 85.498 67.9512 85.498 66.9678C85.498 65.9845 85.8887 65.0414 86.584 64.346C87.2794 63.6507 88.2225 63.26 89.2059 63.26H92.9137Z" fill="#11B0D7"/>
<path d="M5.77959 63.26C6.76297 63.26 7.70606 63.6507 8.40141 64.346C9.09676 65.0414 9.48741 65.9845 9.48741 66.9678C9.48741 67.9512 9.09676 68.8943 8.40141 69.5896C7.70606 70.285 6.76297 70.6756 5.77959 70.6756H2.07178V63.26H5.77959Z" fill="#11B0D7"/>
<path d="M90.5597 7.64293V8.14293H91.0597H92.9136C93.2727 8.14293 93.617 8.28557 93.8709 8.53948C94.1249 8.79338 94.2675 9.13776 94.2675 9.49683V33.5976C94.2675 33.9567 94.1249 34.3011 93.8709 34.555C93.617 34.8089 93.2727 34.9515 92.9136 34.9515H76.2284C75.8693 34.9515 75.525 34.8089 75.2711 34.555C75.0172 34.3011 74.8745 33.9567 74.8745 33.5976V9.49683C74.8745 9.13775 75.0172 8.79338 75.2711 8.53948C75.525 8.28557 75.8693 8.14293 76.2284 8.14293H78.0823H78.5823V7.64293V2.0812C78.5823 1.72212 78.725 1.37775 78.9789 1.12385C79.2328 0.869939 79.5772 0.727295 79.9362 0.727295H89.2058C89.5649 0.727295 89.9092 0.869939 90.1631 1.12385C90.417 1.37775 90.5597 1.72212 90.5597 2.0812V7.64293ZM81.7901 3.43511H81.2901V3.93511V7.64293V8.14293H81.7901H87.3519H87.8519V7.64293V3.93511V3.43511H87.3519H81.7901ZM91.5597 11.3507V10.8507H91.0597H78.0823H77.5823V11.3507V24.3281V24.8281H78.0823H91.0597H91.5597V24.3281V11.3507ZM77.5823 31.7437V32.2437H78.0823H91.0597H91.5597V31.7437V28.0359V27.5359H91.0597H78.0823H77.5823V28.0359V31.7437Z" fill="white" stroke="#E1221A"/>
<path d="M55.8357 3.43512L55.835 3.43512C52.7536 3.43886 49.7995 4.66461 47.6206 6.8435C45.4417 9.02239 44.216 11.9765 44.2122 15.058V15.0586C44.2122 17.3575 44.8939 19.6047 46.1711 21.5162C47.4483 23.4277 49.2636 24.9175 51.3876 25.7972C53.5115 26.677 55.8485 26.9072 58.1033 26.4587C60.358 26.0102 62.4291 24.9031 64.0547 23.2776C65.6802 21.652 66.7873 19.5809 67.2358 17.3262C67.6842 15.0715 67.4541 12.7344 66.5743 10.6105C65.6946 8.48656 64.2048 6.67122 62.2933 5.39402C60.3818 4.11682 58.1346 3.43512 55.8357 3.43512ZM63.7977 26.9746C61.4411 28.5492 58.6705 29.3897 55.8362 29.3898C52.0365 29.3854 48.3938 27.874 45.707 25.1873C43.0202 22.5005 41.5089 18.8579 41.5044 15.0583C41.5045 12.2239 42.345 9.45322 43.9196 7.09654C45.4944 4.73978 47.7326 2.9029 50.3513 1.8182C52.97 0.733505 55.8516 0.449698 58.6315 1.00267C61.4115 1.55565 63.9651 2.92057 65.9694 4.92483C67.9736 6.92909 69.3386 9.48268 69.8915 12.2627C70.4445 15.0427 70.1607 17.9242 69.076 20.5429C67.9913 23.1616 66.1544 25.3998 63.7977 26.9746Z" fill="white" stroke="#E1221A"/>
<path d="M57.2234 16.1214C56.8552 16.4896 56.3558 16.6964 55.8351 16.6964C55.3144 16.6964 54.815 16.4896 54.4467 16.1214C54.0785 15.7532 53.8717 15.2538 53.8717 14.733V10.0062C53.8717 9.4855 54.0785 8.9861 54.4467 8.61789C54.815 8.24968 55.3144 8.04282 55.8351 8.04282C56.3558 8.04282 56.8552 8.24968 57.2234 8.61789C57.5916 8.9861 57.7985 9.4855 57.7985 10.0062V14.733C57.7985 15.2538 57.5916 15.7532 57.2234 16.1214Z" fill="white" stroke="#11B0D7" stroke-width="0.8"/>
<path d="M54.0237 21.3942L54.0237 21.3942L54.0221 21.3904C53.9728 21.2738 53.9357 21.1524 53.9116 21.0281L53.9116 21.0281L53.911 21.0248C53.8854 20.8984 53.8722 20.7699 53.8717 20.641C53.8722 20.5131 53.8853 20.3855 53.9109 20.2601L53.9109 20.2601L53.9116 20.2563C53.9357 20.132 53.9727 20.0106 54.0221 19.894L54.0221 19.894L54.0236 19.8903C54.1711 19.5315 54.4223 19.225 54.7451 19.01L54.7453 19.0098C54.852 18.9387 54.9655 18.8783 55.0841 18.8297L55.0841 18.8297L55.0854 18.8291C55.2041 18.78 55.3273 18.7424 55.4533 18.717L55.4534 18.717C55.7053 18.6661 55.9648 18.6661 56.2167 18.717L56.2169 18.717C56.3429 18.7424 56.4661 18.78 56.5848 18.8291L56.5848 18.8292L56.5861 18.8297C56.7047 18.8783 56.8182 18.9387 56.9248 19.0098L56.9248 19.0098L56.927 19.0113C57.0335 19.0813 57.1326 19.1621 57.2226 19.2524C57.5896 19.6217 57.7964 20.1206 57.7985 20.6412C57.7981 20.7699 57.7849 20.8983 57.7593 21.0245L57.7592 21.0245L57.7585 21.0281C57.7344 21.1524 57.6974 21.2738 57.6481 21.3904L57.6481 21.3904L57.6467 21.3937C57.5485 21.6319 57.4047 21.8485 57.2233 22.0313C57.1319 22.1218 57.0321 22.2032 56.925 22.2745L56.9248 22.2746C56.8182 22.3457 56.7047 22.4061 56.5861 22.4548L56.5848 22.4553C56.4664 22.5043 56.3435 22.5418 56.2179 22.5672C55.9651 22.6168 55.7051 22.6168 55.4523 22.5672C55.3267 22.5418 55.2038 22.5043 55.0854 22.4553L55.0841 22.4548C54.9655 22.4061 54.852 22.3457 54.7453 22.2746L54.7451 22.2745C54.6384 22.2034 54.5387 22.1222 54.4475 22.032C54.3572 21.94 54.2755 21.8398 54.2036 21.7327C54.1326 21.6261 54.0723 21.5127 54.0237 21.3942Z" fill="white" stroke="#11B0D7" stroke-width="0.8"/>
<mask id="path-14-inside-1_49_1653" fill="white">
<path d="M87.3519 53.9906H79.2763L71.983 37.9451C71.3923 36.6501 70.4422 35.5521 69.2456 34.7814C68.049 34.0107 66.6562 33.5999 65.2329 33.5977H29.7547C28.3313 33.5993 26.9383 34.0099 25.7416 34.7806C24.5449 35.5514 23.5949 36.6498 23.0046 37.9451L15.7114 53.9906H7.63389C5.66775 53.9926 3.78269 54.7745 2.39242 56.1648C1.00214 57.5551 0.220225 59.4401 0.218262 61.4063V79.9453C0.220225 81.9115 1.00214 83.7965 2.39242 85.1868C3.78269 86.5771 5.66775 87.359 7.63389 87.361H8.02321C8.62782 89.4961 9.91272 91.3756 11.6828 92.7141C13.4528 94.0525 15.6113 94.7767 17.8304 94.7767C20.0495 94.7767 22.208 94.0525 23.978 92.7141C25.7481 91.3756 27.0329 89.4961 27.6376 87.361H67.3464C67.951 89.4961 69.2359 91.3756 71.006 92.7141C72.776 94.0525 74.9345 94.7767 77.1536 94.7767C79.3727 94.7767 81.5312 94.0525 83.3012 92.7141C85.0712 91.3756 86.3561 89.4961 86.9608 87.361H87.3501C89.3162 87.359 91.2013 86.5771 92.5915 85.1868C93.9818 83.7965 94.7637 81.9115 94.7657 79.9453V61.4063C94.7637 59.4401 93.9818 57.5551 92.5915 56.1648C91.2013 54.7745 89.3162 53.9926 87.3501 53.9906H87.3519ZM91.0597 68.8219H89.2058C88.7141 68.8219 88.2426 68.6266 87.8949 68.2789C87.5472 67.9312 87.3519 67.4597 87.3519 66.968C87.3519 66.4763 87.5472 66.0048 87.8949 65.6571C88.2426 65.3094 88.7141 65.1141 89.2058 65.1141H91.0597V68.8219ZM3.92608 65.1141H5.77998C6.27167 65.1141 6.74322 65.3094 7.0909 65.6571C7.43857 66.0048 7.63389 66.4763 7.63389 66.968C7.63389 67.4597 7.43857 67.9312 7.0909 68.2789C6.74322 68.6266 6.27167 68.8219 5.77998 68.8219H3.92608V65.1141ZM17.8304 91.0688C16.547 91.0688 15.2925 90.6882 14.2255 89.9753C13.1584 89.2623 12.3267 88.2489 11.8356 87.0632C11.3445 85.8776 11.216 84.5729 11.4664 83.3142C11.7168 82.0556 12.3347 80.8994 13.2422 79.9919C14.1497 79.0845 15.3058 78.4665 16.5645 78.2161C17.8232 77.9657 19.1278 78.0942 20.3135 78.5854C21.4991 79.0765 22.5125 79.9081 23.2255 80.9752C23.9385 82.0423 24.3191 83.2968 24.3191 84.5801C24.3172 86.3004 23.633 87.9498 22.4165 89.1662C21.2001 90.3827 19.5507 91.0669 17.8304 91.0688ZM35.4425 83.6532V57.6985H59.5433V83.6532H35.4425ZM63.1417 44.7211L67.1147 53.9906H49.3487V44.7211H63.1436H63.1417ZM45.639 53.9906H27.873L31.8459 44.7211H45.6409V53.9906H45.639ZM77.1554 91.0688C75.8721 91.0688 74.6176 90.6882 73.5505 89.9753C72.4835 89.2623 71.6518 88.2489 71.1607 87.0632C70.6696 85.8776 70.5411 84.5729 70.7914 83.3142C71.0418 82.0556 71.6598 80.8994 72.5672 79.9919C73.4747 79.0845 74.6309 78.4665 75.8896 78.2161C77.1482 77.9657 78.4529 78.0942 79.6385 78.5854C80.8242 79.0765 81.8376 79.9081 82.5506 80.9752C83.2636 82.0423 83.6441 83.2968 83.6441 84.5801C83.6422 86.3004 82.958 87.9498 81.7416 89.1662C80.5251 90.3827 78.8758 91.0669 77.1554 91.0688ZM87.3519 83.6532H87.3074C87.0766 81.1202 85.9071 78.7651 84.0288 77.0501C82.1505 75.3352 79.6989 74.3844 77.1554 74.3844C74.612 74.3844 72.1604 75.3352 70.2821 77.0501C68.4037 78.7651 67.2343 81.1202 67.0034 83.6532H63.2511V57.6985H69.9252C70.232 57.6984 70.534 57.6223 70.8041 57.4768C71.0742 57.3313 71.3039 57.1211 71.4728 56.865C71.6417 56.6088 71.7443 56.3148 71.7716 56.0092C71.7988 55.7036 71.7498 55.3961 71.6289 55.1141L66.0672 42.1368C65.9243 41.8033 65.6867 41.5192 65.3838 41.3195C65.081 41.1198 64.7262 41.0133 64.3635 41.0133H30.6223C30.2595 41.013 29.9046 41.1194 29.6017 41.3191C29.2988 41.5188 29.0613 41.8032 28.9186 42.1368L23.3569 55.1141C23.2363 55.3961 23.1875 55.7036 23.2149 56.009C23.2423 56.3145 23.345 56.6084 23.5138 56.8645C23.6826 57.1205 23.9122 57.3307 24.1822 57.4762C24.4521 57.6218 24.7539 57.6981 25.0606 57.6985H31.7347V83.6532H27.9824C27.7515 81.1202 26.5821 78.7651 24.7038 77.0501C22.8254 75.3352 20.3738 74.3844 17.8304 74.3844C15.2869 74.3844 12.8354 75.3352 10.957 77.0501C9.07867 78.7651 7.90926 81.1202 7.67839 83.6532H7.63389C6.65082 83.6522 5.70829 83.2612 5.01316 82.5661C4.31802 81.8709 3.92706 80.9284 3.92608 79.9453V72.5297H5.77998C7.25505 72.5297 8.66969 71.9437 9.71272 70.9007C10.7557 69.8577 11.3417 68.4431 11.3417 66.968C11.3417 65.4929 10.7557 64.0783 9.71272 63.0353C8.66969 61.9922 7.25505 61.4063 5.77998 61.4063H3.92608C3.92706 60.4232 4.31802 59.4807 5.01316 58.7855C5.70829 58.0904 6.65082 57.6994 7.63389 57.6985H16.9034C17.2593 57.6985 17.6076 57.5961 17.9068 57.4035C18.206 57.2108 18.4433 56.9361 18.5905 56.6121L26.3788 39.4801C26.6743 38.8326 27.1495 38.2837 27.748 37.8985C28.3465 37.5133 29.043 37.3081 29.7547 37.3073H65.2329C65.9446 37.3084 66.641 37.5136 67.2395 37.8988C67.8379 38.2839 68.3132 38.8328 68.6089 39.4801L76.3972 56.6121C76.5443 56.9361 76.7817 57.2108 77.0809 57.4035C77.38 57.5962 77.7284 57.6986 78.0842 57.6985H87.3538C88.3369 57.6994 89.2794 58.0904 89.9745 58.7855C90.6697 59.4807 91.0606 60.4232 91.0616 61.4063H89.2077C87.7326 61.4063 86.318 61.9922 85.2749 63.0353C84.2319 64.0783 83.646 65.4929 83.646 66.968C83.646 68.4431 84.2319 69.8577 85.2749 70.9007C86.318 71.9437 87.7326 72.5297 89.2077 72.5297H91.0616V79.9453C91.0606 80.9284 90.6697 81.8709 89.9745 82.5661C89.2794 83.2612 88.3369 83.6522 87.3538 83.6532H87.3519Z"/>
</mask>
<path d="M87.3519 53.9906H79.2763L71.983 37.9451C71.3923 36.6501 70.4422 35.5521 69.2456 34.7814C68.049 34.0107 66.6562 33.5999 65.2329 33.5977H29.7547C28.3313 33.5993 26.9383 34.0099 25.7416 34.7806C24.5449 35.5514 23.5949 36.6498 23.0046 37.9451L15.7114 53.9906H7.63389C5.66775 53.9926 3.78269 54.7745 2.39242 56.1648C1.00214 57.5551 0.220225 59.4401 0.218262 61.4063V79.9453C0.220225 81.9115 1.00214 83.7965 2.39242 85.1868C3.78269 86.5771 5.66775 87.359 7.63389 87.361H8.02321C8.62782 89.4961 9.91272 91.3756 11.6828 92.7141C13.4528 94.0525 15.6113 94.7767 17.8304 94.7767C20.0495 94.7767 22.208 94.0525 23.978 92.7141C25.7481 91.3756 27.0329 89.4961 27.6376 87.361H67.3464C67.951 89.4961 69.2359 91.3756 71.006 92.7141C72.776 94.0525 74.9345 94.7767 77.1536 94.7767C79.3727 94.7767 81.5312 94.0525 83.3012 92.7141C85.0712 91.3756 86.3561 89.4961 86.9608 87.361H87.3501C89.3162 87.359 91.2013 86.5771 92.5915 85.1868C93.9818 83.7965 94.7637 81.9115 94.7657 79.9453V61.4063C94.7637 59.4401 93.9818 57.5551 92.5915 56.1648C91.2013 54.7745 89.3162 53.9926 87.3501 53.9906H87.3519ZM91.0597 68.8219H89.2058C88.7141 68.8219 88.2426 68.6266 87.8949 68.2789C87.5472 67.9312 87.3519 67.4597 87.3519 66.968C87.3519 66.4763 87.5472 66.0048 87.8949 65.6571C88.2426 65.3094 88.7141 65.1141 89.2058 65.1141H91.0597V68.8219ZM3.92608 65.1141H5.77998C6.27167 65.1141 6.74322 65.3094 7.0909 65.6571C7.43857 66.0048 7.63389 66.4763 7.63389 66.968C7.63389 67.4597 7.43857 67.9312 7.0909 68.2789C6.74322 68.6266 6.27167 68.8219 5.77998 68.8219H3.92608V65.1141ZM17.8304 91.0688C16.547 91.0688 15.2925 90.6882 14.2255 89.9753C13.1584 89.2623 12.3267 88.2489 11.8356 87.0632C11.3445 85.8776 11.216 84.5729 11.4664 83.3142C11.7168 82.0556 12.3347 80.8994 13.2422 79.9919C14.1497 79.0845 15.3058 78.4665 16.5645 78.2161C17.8232 77.9657 19.1278 78.0942 20.3135 78.5854C21.4991 79.0765 22.5125 79.9081 23.2255 80.9752C23.9385 82.0423 24.3191 83.2968 24.3191 84.5801C24.3172 86.3004 23.633 87.9498 22.4165 89.1662C21.2001 90.3827 19.5507 91.0669 17.8304 91.0688ZM35.4425 83.6532V57.6985H59.5433V83.6532H35.4425ZM63.1417 44.7211L67.1147 53.9906H49.3487V44.7211H63.1436H63.1417ZM45.639 53.9906H27.873L31.8459 44.7211H45.6409V53.9906H45.639ZM77.1554 91.0688C75.8721 91.0688 74.6176 90.6882 73.5505 89.9753C72.4835 89.2623 71.6518 88.2489 71.1607 87.0632C70.6696 85.8776 70.5411 84.5729 70.7914 83.3142C71.0418 82.0556 71.6598 80.8994 72.5672 79.9919C73.4747 79.0845 74.6309 78.4665 75.8896 78.2161C77.1482 77.9657 78.4529 78.0942 79.6385 78.5854C80.8242 79.0765 81.8376 79.9081 82.5506 80.9752C83.2636 82.0423 83.6441 83.2968 83.6441 84.5801C83.6422 86.3004 82.958 87.9498 81.7416 89.1662C80.5251 90.3827 78.8758 91.0669 77.1554 91.0688ZM87.3519 83.6532H87.3074C87.0766 81.1202 85.9071 78.7651 84.0288 77.0501C82.1505 75.3352 79.6989 74.3844 77.1554 74.3844C74.612 74.3844 72.1604 75.3352 70.2821 77.0501C68.4037 78.7651 67.2343 81.1202 67.0034 83.6532H63.2511V57.6985H69.9252C70.232 57.6984 70.534 57.6223 70.8041 57.4768C71.0742 57.3313 71.3039 57.1211 71.4728 56.865C71.6417 56.6088 71.7443 56.3148 71.7716 56.0092C71.7988 55.7036 71.7498 55.3961 71.6289 55.1141L66.0672 42.1368C65.9243 41.8033 65.6867 41.5192 65.3838 41.3195C65.081 41.1198 64.7262 41.0133 64.3635 41.0133H30.6223C30.2595 41.013 29.9046 41.1194 29.6017 41.3191C29.2988 41.5188 29.0613 41.8032 28.9186 42.1368L23.3569 55.1141C23.2363 55.3961 23.1875 55.7036 23.2149 56.009C23.2423 56.3145 23.345 56.6084 23.5138 56.8645C23.6826 57.1205 23.9122 57.3307 24.1822 57.4762C24.4521 57.6218 24.7539 57.6981 25.0606 57.6985H31.7347V83.6532H27.9824C27.7515 81.1202 26.5821 78.7651 24.7038 77.0501C22.8254 75.3352 20.3738 74.3844 17.8304 74.3844C15.2869 74.3844 12.8354 75.3352 10.957 77.0501C9.07867 78.7651 7.90926 81.1202 7.67839 83.6532H7.63389C6.65082 83.6522 5.70829 83.2612 5.01316 82.5661C4.31802 81.8709 3.92706 80.9284 3.92608 79.9453V72.5297H5.77998C7.25505 72.5297 8.66969 71.9437 9.71272 70.9007C10.7557 69.8577 11.3417 68.4431 11.3417 66.968C11.3417 65.4929 10.7557 64.0783 9.71272 63.0353C8.66969 61.9922 7.25505 61.4063 5.77998 61.4063H3.92608C3.92706 60.4232 4.31802 59.4807 5.01316 58.7855C5.70829 58.0904 6.65082 57.6994 7.63389 57.6985H16.9034C17.2593 57.6985 17.6076 57.5961 17.9068 57.4035C18.206 57.2108 18.4433 56.9361 18.5905 56.6121L26.3788 39.4801C26.6743 38.8326 27.1495 38.2837 27.748 37.8985C28.3465 37.5133 29.043 37.3081 29.7547 37.3073H65.2329C65.9446 37.3084 66.641 37.5136 67.2395 37.8988C67.8379 38.2839 68.3132 38.8328 68.6089 39.4801L76.3972 56.6121C76.5443 56.9361 76.7817 57.2108 77.0809 57.4035C77.38 57.5962 77.7284 57.6986 78.0842 57.6985H87.3538C88.3369 57.6994 89.2794 58.0904 89.9745 58.7855C90.6697 59.4807 91.0606 60.4232 91.0616 61.4063H89.2077C87.7326 61.4063 86.318 61.9922 85.2749 63.0353C84.2319 64.0783 83.646 65.4929 83.646 66.968C83.646 68.4431 84.2319 69.8577 85.2749 70.9007C86.318 71.9437 87.7326 72.5297 89.2077 72.5297H91.0616V79.9453C91.0606 80.9284 90.6697 81.8709 89.9745 82.5661C89.2794 83.2612 88.3369 83.6522 87.3538 83.6532H87.3519Z" fill="white" stroke="#E1221A" stroke-width="2" mask="url(#path-14-inside-1_49_1653)"/>
<path d="M18.8594 83.0377C18.7584 82.9704 18.651 82.9132 18.5387 82.8672C18.4268 82.8208 18.3107 82.7854 18.192 82.7615C17.9534 82.7133 17.7076 82.7133 17.469 82.7615C17.3503 82.7854 17.2341 82.8208 17.1223 82.8672C17.01 82.9132 16.9025 82.9704 16.8016 83.0377C16.7 83.1045 16.6056 83.1815 16.5198 83.2676C16.4341 83.3538 16.3571 83.4482 16.2899 83.5494C16.2233 83.6508 16.1662 83.7582 16.1193 83.8701C16.0721 83.9817 16.0367 84.0979 16.0136 84.2168C15.9894 84.3358 15.977 84.4569 15.9766 84.5783C15.977 84.7004 15.9894 84.8221 16.0136 84.9417C16.0367 85.0606 16.0721 85.1768 16.1193 85.2884C16.1658 85.3999 16.2229 85.5067 16.2899 85.6072C16.4247 85.8107 16.5986 85.9852 16.8016 86.1208C16.9025 86.1881 17.01 86.2453 17.1223 86.2913C17.2341 86.3377 17.3503 86.3731 17.469 86.397C17.7074 86.4464 17.9535 86.4464 18.192 86.397C18.3107 86.3731 18.4268 86.3377 18.5387 86.2913C18.651 86.2453 18.7584 86.1881 18.8594 86.1208C18.961 86.0534 19.0554 85.9757 19.1412 85.889C19.3134 85.717 19.45 85.5126 19.5432 85.2877C19.6364 85.0628 19.6844 84.8218 19.6844 84.5783C19.6844 84.3349 19.6364 84.0938 19.5432 83.8689C19.45 83.644 19.3134 83.4397 19.1412 83.2676C19.0554 83.1815 18.9609 83.1045 18.8594 83.0377Z" fill="white"/>
<path d="M78.8663 83.87C78.8195 83.7581 78.7624 83.6507 78.6958 83.5493C78.4581 83.1925 78.1039 82.9294 77.6937 82.805C77.2835 82.6805 76.8428 82.7025 76.447 82.867C76.3347 82.9131 76.2272 82.9702 76.1263 83.0376C76.0247 83.1044 75.9303 83.1814 75.8445 83.2675C75.7588 83.3537 75.6818 83.4481 75.6146 83.5493C75.5473 83.6503 75.4901 83.7577 75.444 83.87C75.3968 83.9816 75.3614 84.0978 75.3383 84.2167C75.314 84.3357 75.3016 84.4568 75.3013 84.5782C75.3017 84.7002 75.3141 84.822 75.3383 84.9416C75.3614 85.0605 75.3968 85.1767 75.444 85.2882C75.4909 85.4002 75.548 85.5075 75.6146 85.609C75.6818 85.7102 75.7588 85.8046 75.8445 85.8908C75.9303 85.9768 76.0247 86.0539 76.1263 86.1206C76.2272 86.188 76.3347 86.2451 76.447 86.2912C76.5589 86.3376 76.675 86.3729 76.7937 86.3969C76.9126 86.4212 77.0337 86.4337 77.1552 86.434C77.4602 86.4346 77.7605 86.3595 78.0294 86.2156C78.2983 86.0716 78.5272 85.8632 78.6958 85.609C78.7624 85.5075 78.8195 85.4002 78.8663 85.2882C78.9127 85.1764 78.9481 85.0603 78.972 84.9416C78.9964 84.822 79.0088 84.7002 79.0091 84.5782C79.0089 84.4568 78.9964 84.3356 78.972 84.2167C78.9481 84.098 78.9127 83.9819 78.8663 83.87Z" fill="white"/>
<path d="M46.5612 67.9622L46.0705 68.4528L46.6912 68.763L51.5296 71.1814V71.1834L51.8063 71.3215C51.9981 71.4173 52.1644 71.5574 52.2915 71.7301L52.6943 71.4338L52.2915 71.7301C52.4186 71.9028 52.5028 72.1033 52.5372 72.3149C52.5716 72.5266 52.5551 72.7434 52.4892 72.9475C52.4233 73.1516 52.3099 73.337 52.1582 73.4886L52.1581 73.4887L46.5997 79.0471C46.3447 79.292 46.0039 79.4274 45.6502 79.4244C45.2952 79.4213 44.9557 79.2789 44.7046 79.0279C44.4536 78.7768 44.3112 78.4373 44.3081 78.0823C44.3051 77.7286 44.4405 77.3879 44.6854 77.1328L48.4251 73.3931L48.9157 72.9025L48.2951 72.5923L43.1808 70.0361C43.1807 70.036 43.1806 70.036 43.1805 70.0359C42.9888 69.9397 42.8226 69.7994 42.6957 69.6265L42.2939 69.9216L42.6957 69.6265C42.5687 69.4536 42.4845 69.2529 42.4501 69.0411C42.4158 68.8293 42.4321 68.6123 42.4979 68.4081C42.5637 68.2038 42.677 68.0182 42.8285 67.8662C42.8285 67.8662 42.8286 67.8662 42.8286 67.8661L48.3866 62.3082C48.6416 62.0633 48.9824 61.9279 49.336 61.931C49.691 61.934 50.0306 62.0764 50.2816 62.3275L50.6295 61.9796L50.2816 62.3275C50.5326 62.5785 50.675 62.9181 50.6781 63.273C50.6812 63.6267 50.5458 63.9674 50.3009 64.2225L46.5612 67.9622Z" fill="white" stroke="#E1221A"/>
</svg>
