<svg width="95" height="85" viewBox="0 0 95 85" fill="none" xmlns="http://www.w3.org/2000/svg">
<path d="M50.3104 2.64307H15.0861C13.6111 2.64307 12.1964 3.22903 11.1534 4.27206C10.1104 5.31508 9.52441 6.72973 9.52441 8.20479V73.2769C10.1346 73.153 10.7557 73.0909 11.3783 73.0916H54.0182C54.6408 73.0918 55.2618 73.1539 55.8721 73.2769V8.20479C55.8721 6.72973 55.2861 5.31508 54.2431 4.27206C53.2001 3.22903 51.7854 2.64307 50.3104 2.64307Z" fill="#232C3B"/>
<path d="M92.9504 10.0586V15.6203C92.9504 17.5871 92.1691 19.4733 90.7784 20.864C89.3877 22.2547 87.5015 23.0359 85.5348 23.0359C83.568 23.0359 81.6818 22.2547 80.2911 20.864C78.9004 19.4733 78.1191 17.5871 78.1191 15.6203V10.0586H92.9504Z" fill="#11B0D7"/>
<path d="M62.8818 82.3611H2.10889C2.10982 80.2248 2.84825 78.1542 4.19939 76.4994C5.55053 74.8446 7.43152 73.707 9.52452 73.2788C10.1345 73.1533 10.7557 73.0906 11.3784 73.0916H54.0183C54.6409 73.0918 55.2619 73.1539 55.8722 73.277C57.884 73.689 59.7022 74.7569 61.0418 76.3132C62.3815 77.8696 63.1669 79.8265 63.2749 81.8772L62.8818 82.3611Z" fill="#00647C"/>
<path d="M65.1421 54.5524V56.4063C65.1419 58.8647 64.1652 61.2223 62.4268 62.9606C60.6885 64.6989 58.3309 65.6756 55.8726 65.6758V43.429C58.3309 43.4292 60.6885 44.4059 62.4268 46.1442C64.1652 47.8825 65.1419 50.2401 65.1421 52.6985V54.5524Z" fill="#232C3B"/>
<path d="M48.4573 10.0586H16.9409V26.7438H48.4573V10.0586Z" fill="#232C3B"/>
<path d="M32.6991 65.6759C41.4022 65.6759 48.4573 58.6207 48.4573 49.9176C48.4573 41.2146 41.4022 34.1594 32.6991 34.1594C23.9961 34.1594 16.9409 41.2146 16.9409 49.9176C16.9409 58.6207 23.9961 65.6759 32.6991 65.6759Z" fill="#E1221A"/>
<path d="M46.6029 25.39H47.1029V24.89V11.9126V11.4126H46.6029H18.7942H18.2942V11.9126V24.89V25.39H18.7942H46.6029ZM16.9403 8.70483H48.4568C48.8158 8.70483 49.1602 8.84748 49.4141 9.10138C49.668 9.35529 49.8107 9.69966 49.8107 10.0587V26.7439C49.8107 27.103 49.668 27.4474 49.4141 27.7013C49.1602 27.9552 48.8158 28.0978 48.4568 28.0978H16.9403C16.5813 28.0978 16.2369 27.9552 15.983 27.7013C15.7291 27.4474 15.5864 27.103 15.5864 26.7439V10.0587C15.5864 9.69966 15.7291 9.35529 15.983 9.10138C16.2369 8.84748 16.5813 8.70483 16.9403 8.70483Z" fill="white" stroke="#232C3B"/>
<path d="M37.0115 50.5613L37.0118 50.5615C37.2037 50.6573 37.37 50.7973 37.4971 50.9701L37.8998 50.6738L37.4971 50.9701C37.6242 51.1428 37.7084 51.3433 37.7428 51.5549C37.7771 51.7666 37.7607 51.9834 37.6948 52.1875C37.6289 52.3916 37.5154 52.577 37.3638 52.7286L37.3637 52.7287L31.8053 58.2871C31.5502 58.532 31.2095 58.6674 30.8558 58.6644C30.5008 58.6613 30.1612 58.5189 29.9102 58.2679C29.6592 58.0168 29.5168 57.6773 29.5137 57.3223C29.5106 56.9686 29.6461 56.6279 29.8909 56.3728L33.6307 52.6331L34.1213 52.1425L33.5006 51.8323L28.3863 49.2761C28.3861 49.276 28.3859 49.2759 28.3857 49.2758C28.1942 49.1796 28.0281 49.0393 27.9012 48.8665L27.4994 49.1616L27.9012 48.8665C27.7742 48.6936 27.6901 48.4929 27.6557 48.2811C27.6213 48.0693 27.6377 47.8523 27.7035 47.6481C27.7693 47.4438 27.8826 47.2581 28.0341 47.1062C28.0341 47.1062 28.0341 47.1062 28.0342 47.1061L33.5921 41.5482C33.8472 41.3033 34.1879 41.1679 34.5416 41.1709C34.8966 41.174 35.2361 41.3164 35.4872 41.5674L35.8351 41.2196L35.4872 41.5674C35.7382 41.8185 35.8806 42.1581 35.8837 42.513C35.8867 42.8667 35.7513 43.2075 35.5064 43.4625L31.7667 47.2022L31.2763 47.6927L31.8966 48.003L37.0115 50.5613Z" fill="white" stroke="#E1221A"/>
<path d="M91.0968 8.70469H91.7404L91.7385 8.70655H92.9489C93.308 8.70655 93.6524 8.84919 93.9063 9.1031C94.1602 9.357 94.3028 9.70137 94.3028 10.0605V15.6214C94.2997 17.6422 93.6003 19.6001 92.3222 21.1653C91.0442 22.7306 89.2657 23.8075 87.2864 24.2147L86.8872 24.2969V24.7045V34.1606C86.8805 39.6127 84.8289 44.864 81.1377 48.8766C77.4466 52.8892 72.3845 55.3712 66.9519 55.8321L66.4942 55.8709V56.3303V56.4075C66.4908 58.917 65.6003 61.3446 63.9803 63.2612C62.3602 65.1777 60.1147 66.4599 57.6407 66.8811L57.2247 66.9519V67.374V71.8716V72.2254L57.5583 72.3431C59.5417 73.0428 61.2725 74.3161 62.5309 76.0013C63.7813 77.6758 64.5093 79.6821 64.624 81.7682C64.5676 82.2403 64.3637 82.683 64.041 83.033C63.7197 83.3813 63.2974 83.6197 62.834 83.7149H2.10928C1.7502 83.7149 1.40583 83.5723 1.15192 83.3183C0.898016 83.0644 0.755371 82.7201 0.755371 82.361C0.754974 80.1634 1.43584 78.0199 2.70422 76.2255C3.9726 74.431 5.7661 73.074 7.83775 72.3411L8.171 72.2232V71.8697L8.171 8.20519C8.171 8.20502 8.171 8.20486 8.171 8.20469C8.17297 6.37116 8.9022 4.61328 10.1987 3.31677C11.4953 2.0202 13.2533 1.29096 15.0869 1.28906H50.3106C52.1442 1.29096 53.9022 2.0202 55.1988 3.31677C56.4954 4.6134 57.2247 6.37148 57.2265 8.20519V41.7326V42.1546L57.6426 42.2255C60.1013 42.6443 62.3348 43.9137 63.9527 45.8119C65.5707 47.7102 66.4702 50.1165 66.4942 52.6106L66.4995 53.1586L67.0447 53.1032C71.739 52.6264 76.0897 50.4256 79.2552 46.9264C82.4206 43.4272 84.1758 38.8784 84.1812 34.16V34.1594V24.7026V24.2949L83.7818 24.2128C81.8023 23.8062 80.0236 22.7294 78.7455 21.1641C77.4674 19.5987 76.7681 17.6405 76.7656 15.6197V10.0586C76.7656 9.69952 76.9082 9.35515 77.1621 9.10124C77.416 8.84734 77.7604 8.70469 78.1195 8.70469H79.9734H80.4734V8.20469V2.64297C80.4734 2.28389 80.616 1.93952 80.8699 1.68561C81.1239 1.43171 81.4682 1.28906 81.8273 1.28906C82.1864 1.28906 82.5308 1.43171 82.7847 1.68561C83.0386 1.93952 83.1812 2.28389 83.1812 2.64297V8.20469V8.70469H83.6812H87.389H87.889V8.20469V2.64297C87.889 2.28389 88.0317 1.93952 88.2856 1.68561C88.5395 1.43171 88.8839 1.28906 89.2429 1.28906C89.602 1.28906 89.9464 1.43171 90.2003 1.68561C90.4542 1.93952 90.5968 2.28389 90.5968 2.64297V8.20469V8.70469H91.0968ZM3.71092 80.3816L3.54882 81.0071H4.19493H61.2007H61.2026H61.8482L61.6867 80.382C61.3162 78.9476 60.5506 77.646 59.4769 76.6252C58.4033 75.6043 57.0647 74.9053 55.6134 74.6076L55.6085 74.6066C55.5645 74.598 55.5236 74.5898 55.4843 74.582C55.1903 74.523 54.9934 74.4836 54.3523 74.4618C53.6539 74.4381 52.3942 74.4331 49.7872 74.4352C48.7229 74.436 47.4323 74.4381 45.8615 74.4405C39.7242 74.4503 29.3075 74.4668 11.3794 74.4454H11.3786C9.6236 74.4461 7.91848 75.0294 6.53075 76.1037C5.14303 77.1781 4.15121 78.6828 3.71092 80.3816ZM10.8788 71.2375V71.7375H11.3788H54.0187H54.5187V71.2375V8.20469V8.20419C54.5176 7.08869 54.074 6.01919 53.2852 5.2304C52.4964 4.44162 51.4269 3.99799 50.3114 3.99688H50.3109L15.0866 3.99688L15.0861 3.99688C13.9706 3.99799 12.9011 4.44162 12.1123 5.2304C11.3236 6.01918 10.8799 7.08869 10.8788 8.20419V8.20469V71.2375ZM63.7882 56.407V56.4063V56.4044V52.6966V52.6959C63.7858 50.9419 63.2018 49.2381 62.1277 47.8514C61.0536 46.4647 59.5499 45.4734 57.8522 45.0325L57.2265 44.87V45.5164V63.5865V64.2329L57.8522 64.0704C59.5499 63.6295 61.0536 62.6382 62.1277 61.2515C63.2018 59.8648 63.7858 58.161 63.7882 56.407ZM79.9734 11.4125H79.4734V11.9125V15.6203C79.4734 17.228 80.1121 18.7698 81.2488 19.9066C82.3856 21.0434 83.9275 21.682 85.5351 21.682C87.1428 21.682 88.6846 21.0434 89.8214 19.9066C90.9582 18.7698 91.5968 17.228 91.5968 15.6203V11.9125V11.4125H91.0968H79.9734Z" fill="white" stroke="#232C3B"/>
<path d="M32.6986 64.3219L32.6991 64.3218C36.518 64.3178 40.1793 62.799 42.8797 60.0986C45.58 57.3983 47.0988 53.737 47.1029 49.9181V49.9175C47.1029 47.0686 46.2581 44.2837 44.6753 41.9149C43.0925 39.5462 40.8429 37.6999 38.2108 36.6097C35.5788 35.5195 32.6826 35.2342 29.8884 35.79C27.0943 36.3458 24.5277 37.7177 22.5132 39.7322C20.4987 41.7466 19.1268 44.3132 18.571 47.1074C18.0152 49.9016 18.3005 52.7978 19.3907 55.4298C20.4809 58.0619 22.3272 60.3115 24.696 61.8943C27.0647 63.4771 29.8497 64.3219 32.6986 64.3219ZM23.1916 35.6893C26.0056 33.8091 29.3139 32.8055 32.6983 32.8054C37.2351 32.8108 41.5846 34.6155 44.7926 37.8235C48.0007 41.0316 49.8053 45.3812 49.8107 49.9181C49.8106 53.3024 48.807 56.6106 46.9268 59.4245C45.0465 62.2386 42.3739 64.4319 39.2471 65.7271C36.1203 67.0223 32.6796 67.3611 29.3601 66.7009C26.0407 66.0406 22.9916 64.4108 20.5985 62.0176C18.2053 59.6245 16.5755 56.5754 15.9152 53.256C15.255 49.9365 15.5938 46.4958 16.889 43.369C18.1842 40.2422 20.3775 37.5696 23.1916 35.6893Z" fill="white" stroke="#232C3B"/>
</svg>
