<svg width="19" height="20" viewBox="0 0 19 20" fill="none" xmlns="http://www.w3.org/2000/svg">
<path d="M9.46681 0.937012C7.60015 0.937012 5.77541 1.49054 4.22334 2.5276C2.67127 3.56466 1.46158 5.03868 0.747238 6.76325C0.0328978 8.48781 -0.154006 10.3855 0.210161 12.2163C0.574329 14.0471 1.47321 15.7288 2.79314 17.0487C4.11307 18.3686 5.79476 19.2675 7.62555 19.6317C9.45634 19.9958 11.354 19.8089 13.0786 19.0946C14.8031 18.3802 16.2772 17.1706 17.3142 15.6185C18.3513 14.0664 18.9048 12.2417 18.9048 10.375C18.8977 7.87409 17.901 5.47763 16.1326 3.70921C14.3642 1.94078 11.9677 0.944136 9.46681 0.937012ZM7.52981 15.407L2.69181 10.57L4.05381 9.21301L7.53881 12.698L14.8938 5.34301L16.2508 6.70001L7.52981 15.407Z" fill="#E1221A"/>
</svg>
