<svg width="107" height="107" viewBox="0 0 107 107" fill="none" xmlns="http://www.w3.org/2000/svg">
<path d="M49.2005 0.789582C43.8913 1.3844 40.785 2.02327 36.9738 3.23493C32.5237 4.66689 27.633 7.00209 24.1963 9.31526C22.6322 10.3727 22.3458 10.7032 22.3237 11.4742C22.3237 12.0029 27.7432 20.8591 28.7786 21.9606C29.5056 22.7757 30.3647 22.5995 32.4576 21.2336C36.2468 18.7442 41.0714 16.7835 45.7859 15.8582C48.8481 15.2414 54.642 15.0211 57.7262 15.4176C77.0026 17.7969 91.4764 34.0992 91.4985 53.4197C91.4985 57.0326 91.2341 59.3017 90.3749 62.7825C89.8021 65.0296 88.8108 68.0918 88.5024 68.4883C88.4583 68.5324 87.9075 68.2019 87.2687 67.7613C85.9028 66.836 85.286 66.7699 84.581 67.4749C84.0963 67.9596 84.0743 68.1358 83.9421 73.357C83.6778 82.3453 83.7438 86.509 84.1184 87.214C84.4488 87.8749 84.8454 88.1172 85.5724 88.1172C86.2553 88.1172 102.998 83.2705 103.549 82.9181C104.122 82.5656 104.386 81.7505 104.188 80.9794C104.122 80.671 103.373 79.944 102.359 79.195C101.412 78.49 100.575 77.8511 100.465 77.763C100.377 77.6969 100.751 76.6174 101.302 75.3617C103.329 70.8235 104.783 65.7786 105.488 60.998C105.686 59.7423 105.906 56.7462 105.972 54.3449L106.104 50.005H104.342H102.58L102.447 54.3449C102.227 62.2538 100.509 69.2373 97.2043 75.8244C95.9486 78.3138 96.0147 78.7764 97.8652 80.2304L98.6142 80.8032L97.0941 81.2438C92.7322 82.5436 87.7533 83.9315 87.5551 83.9315C87.2907 83.9315 87.2246 77.8071 87.4449 74.5025L87.5991 72.5198L88.3482 72.8723C88.8769 73.1367 89.2294 73.1587 89.692 73.0045C90.9037 72.5859 93.1067 67.1004 94.2963 61.5708C94.8471 58.9052 94.8911 58.3544 94.8911 53.5298C94.8911 48.7052 94.8471 48.1545 94.2963 45.4888C93.4592 41.5895 92.4017 38.5273 90.7274 35.1346C88.3482 30.31 85.9469 27.0495 81.8713 23.1282C78.9192 20.2643 76.1434 18.2815 72.5085 16.409C66.5383 13.3248 61.2951 11.9589 54.5979 11.7386C48.9141 11.5623 44.9267 12.1131 39.7496 13.8535C37.3042 14.6686 33.2066 16.5632 31.3341 17.7528L30.4749 18.2815L29.9682 17.4664C29.6818 17.0038 28.7786 15.5939 27.9635 14.3161L26.5095 12.025L27.3246 11.4962C33.0524 7.99345 39.6174 5.63622 46.6671 4.57877C49.5971 4.1602 57.0653 4.20426 60.1936 4.68892C78.4786 7.53082 93.1067 19.4271 99.5174 36.6327C100.311 38.7476 101.632 43.5722 101.632 44.3212C101.632 44.916 102.007 44.9821 103.615 44.6957C104.761 44.4974 105.157 44.3432 105.157 44.0789C105.135 43.3298 104.276 39.8491 103.505 37.4478C99.7598 25.8599 92.4678 16.2107 82.4661 9.57962C75.7469 5.12953 68.9175 2.48591 60.7223 1.20816C58.6735 0.877703 50.8528 0.591311 49.2005 0.789582Z" fill="white"/>
<path d="M11.4852 21.4317C6.33012 22.9298 2.78326 24.0753 2.5189 24.3177C2.05627 24.7363 1.92409 25.6175 2.18845 26.3224C2.2986 26.5648 5.0744 28.8559 5.95561 29.4066C5.97764 29.4287 5.47094 30.6624 4.81004 32.1824C4.14913 33.6805 3.59838 35.0023 3.59838 35.1345C3.59838 35.2446 4.32537 35.6192 5.22861 35.9276L6.83681 36.5004L7.56381 34.7159C7.96035 33.7466 8.66532 32.1604 9.12795 31.2352C10.4057 28.6797 10.3616 28.3712 8.22471 26.6749C7.78411 26.3445 7.74005 26.2123 8.00441 26.1242C8.62126 25.9039 18.4687 23.128 18.623 23.128C18.7331 23.128 18.7992 25.7056 18.7992 28.8559V34.6058L18.1383 34.2533C16.7724 33.5483 16.0454 33.9669 15.0541 36.0598C13.4018 39.5626 12.0359 44.5854 11.5072 48.9915C11.1988 51.6791 11.375 58.0238 11.8156 60.4692C12.6307 64.8532 13.8865 68.5763 15.759 72.3434C16.9707 74.7447 18.5348 77.3223 18.7772 77.3223C18.8653 77.3223 19.5482 76.9037 20.2972 76.375L21.6411 75.4056L20.9141 74.3262C17.9621 69.854 15.6929 63.5754 15.032 57.9357C14.6796 54.7413 14.8778 49.2338 15.4947 46.1496C15.9132 44.0567 17.4554 38.9457 17.7638 38.6153C17.8299 38.5712 18.4027 38.8796 19.0195 39.2982C20.2752 40.1574 20.5616 40.2235 21.2886 39.8269C22.324 39.2982 22.302 39.3863 22.324 29.3846V19.8896L21.8173 19.427C21.5089 19.1406 21.0242 18.9423 20.6497 18.9643C20.2972 18.9643 16.1776 20.0879 11.4852 21.4317Z" fill="white"/>
<path d="M39.6179 20.5948C39.3095 20.8812 39.0671 21.3878 39.0671 21.6963C39.0671 22.0267 40.0805 24.0094 41.4684 26.3667L43.8917 30.4643L41.5345 31.6319C34.1984 35.2448 29.2857 41.5455 27.2369 49.939C26.9285 51.2167 26.8624 53.2875 26.7963 64.4348L26.7082 77.4326L24.7695 79.4153C23.7121 80.4948 22.6767 81.6404 22.4784 81.9268L22.1259 82.4555L19.1078 81.0676C14.3933 78.9086 13.424 78.7104 10.8024 79.5255C8.95187 80.0983 7.18946 81.6404 6.30825 83.4468C5.77953 84.5484 5.69141 84.9669 5.69141 86.6853C5.69141 88.4036 5.77953 88.8442 6.33028 90.0339C7.47585 92.5233 7.91645 92.8097 19.8568 98.7798C31.5328 104.618 32.5462 105.08 35.2118 105.785C36.9082 106.248 37.503 106.27 51.2498 106.336L65.5033 106.424V104.662V102.899L51.4701 102.833C37.8334 102.745 37.3708 102.745 35.6524 102.283C34.3967 101.93 30.5194 100.102 22.1039 95.8939L10.3177 89.9898L9.72293 88.8002C8.99593 87.3902 8.92984 86.2006 9.52466 84.9008C10.2296 83.3808 11.8819 82.4555 13.5341 82.6758C13.9968 82.7419 19.0637 84.9229 24.7695 87.5445L35.1678 92.303H45.0373H54.9288V90.5406V88.8002L46.3591 88.7341C38.0758 88.668 37.7453 88.646 37.1725 88.2054C36.0049 87.3462 35.6524 86.6412 35.6524 85.2533C35.6524 83.8654 36.0049 83.1605 37.1725 82.3013C37.7453 81.8607 38.1419 81.8386 45.522 81.7285L53.2766 81.6183L55.2152 80.671C61.1414 77.7631 69.4247 77.719 75.0424 80.5389L76.0778 81.0676V91.9725V102.877H72.553H69.0282V104.64V106.402H84.3391H99.6721L100.201 105.852L100.752 105.323V97.0395V88.7781H98.9892H97.2268V95.8278V102.877H88.4147H79.6026V92.303V81.7285H80.4838H81.3651V79.9661V78.2037H79.845C78.5672 78.2037 78.0826 78.0715 76.4964 77.3445C69.5348 74.1061 61.1414 74.084 54.1578 77.2784L52.3954 78.0715L44.795 78.2037L37.1946 78.3138L35.8067 79.0628C34.3527 79.8559 33.5155 80.7371 32.6563 82.3894C32.2598 83.1825 32.1496 83.7553 32.1496 85.1872C32.1276 86.2006 32.1056 87.0157 32.1056 87.0157C32.0395 87.0157 25.7389 84.1078 25.5626 83.9976C25.4525 83.9315 26.4659 82.7639 27.8097 81.398L30.255 78.9307V66.2853C30.255 52.6707 30.3432 51.3048 31.4226 48.1325C32.0395 46.326 33.3393 43.6824 34.3086 42.2945C35.322 40.8185 38.3401 37.7342 39.8382 36.6768C41.4464 35.5092 44.1781 34.1433 46.1829 33.5044C47.747 32.9757 48.3198 32.447 48.3198 31.4997C48.2978 31.1913 47.3284 29.3187 46.1388 27.314L43.9578 23.679L48.5621 23.6129C51.0956 23.5909 55.2373 23.5909 57.7707 23.6129L62.375 23.679L60.1941 27.314C59.0044 29.3187 58.0351 31.1913 58.0131 31.4997C58.0131 32.447 58.5859 32.9757 60.15 33.5044C63.8511 34.6941 66.8472 36.6107 69.5789 39.4526C73.0156 43.0435 74.9102 46.8107 75.7474 51.6353C76.0117 53.1994 76.0778 55.6888 76.0778 64.1264V74.6788H77.8623H79.6247L79.5365 63.0469C79.4705 53.2214 79.4044 51.2167 79.0959 49.939C77.0471 41.5455 72.1344 35.2448 64.7984 31.6319L62.4411 30.4643L64.8645 26.3667C66.2524 24.0094 67.2657 22.0267 67.2657 21.6963C67.2657 21.3878 67.0234 20.8812 66.715 20.5948L66.1863 20.044H53.1664H40.1466L39.6179 20.5948Z" fill="white"/>
<path d="M43.0988 38.7699C42.3278 39.2546 41.7109 39.7172 41.7109 39.8274C41.7109 39.9816 43.209 42.0965 43.5615 42.471C43.6496 42.5371 45.434 41.5457 46.0949 41.039C46.2271 40.9509 44.7511 37.8887 44.5969 37.8887C44.5308 37.8887 43.8479 38.2852 43.0988 38.7699Z" fill="white"/>
<path d="M1.63745 41.788C0.668124 45.9297 0.425792 48.353 0.425792 53.5301C0.403762 60.073 1.10873 64.5231 2.98129 70.1408C3.70829 72.3438 5.51476 76.6618 5.82318 76.9922C6.04349 77.2125 8.88538 75.9348 8.88538 75.6043C8.88538 75.4942 8.48883 74.4808 7.98214 73.3352C5.00807 66.5279 3.59814 59.1478 3.88453 51.7677C4.01671 48.4852 4.56746 44.3435 5.20634 41.8981C5.38258 41.2593 5.44867 40.7085 5.38258 40.6645C5.18431 40.5323 2.58475 39.8714 2.32039 39.8714C2.18821 39.8714 1.87978 40.7305 1.63745 41.788Z" fill="white"/>
<path d="M51.4038 42.933V44.6733L50.3684 44.8275C48.0992 45.158 46.0504 46.6781 45.015 48.793C44.5744 49.6962 44.4863 50.2249 44.4863 51.767C44.4863 53.8159 44.8608 54.9174 46.0945 56.4154C46.9096 57.3847 48.9805 58.5083 50.3684 58.7066L51.4038 58.8608V62.3856V65.9104L50.6988 65.7782C49.5532 65.5579 48.4738 64.5445 48.0992 63.377L47.7688 62.3415H46.0284H44.3101L44.4643 63.377C44.6405 64.6988 45.764 66.8137 46.6232 67.5407C47.6146 68.3778 49.2008 69.1048 50.3684 69.281L51.4038 69.4352V71.1756V72.916H53.1662H54.9286V71.1756V69.4352L55.964 69.281C57.1316 69.1048 58.7178 68.3778 59.7091 67.5407C60.0616 67.2322 60.7005 66.3731 61.1191 65.602C61.802 64.3242 61.8681 64.0599 61.8681 62.3415C61.8681 60.6232 61.802 60.3588 61.1191 59.0811C59.9955 56.9882 58.2331 55.7325 55.964 55.402L54.9286 55.2478V51.745C54.9286 47.8677 54.9066 47.9558 56.3385 48.5506C57.2197 48.9252 58.167 50.1148 58.3653 51.0621L58.5195 51.767H60.2599H62.0223L61.8681 50.7096C61.6919 49.4098 60.5683 47.2949 59.7091 46.5679C58.7178 45.7308 57.1316 45.0038 55.964 44.8275L54.9286 44.6733V42.933V41.1926H53.1662H51.4038V42.933ZM51.4038 51.767C51.4038 55.6664 51.4258 55.5783 50.0159 54.9835C47.2621 53.8379 47.2401 49.7403 49.9718 48.5506C51.4258 47.9118 51.4038 47.8677 51.4038 51.767ZM56.8893 59.4335C57.9688 60.2266 58.3433 60.9757 58.3433 62.3415C58.3433 63.3109 58.2331 63.7955 57.8806 64.2361C57.2638 65.0953 56.4927 65.624 55.6556 65.7782L54.9286 65.9104V62.3415V58.7506L55.6556 58.9048C56.0301 58.9709 56.6029 59.2132 56.8893 59.4335Z" fill="white"/>
<path d="M37.6788 43.6829C35.2996 46.8552 34.0659 50.38 33.8456 54.5658L33.7134 57.0552H35.4758H37.2382L37.3704 54.6759C37.5687 51.1731 38.6922 48.0228 40.6749 45.5334L41.3358 44.6962L40.5868 43.9032C40.1682 43.4846 39.5734 42.9559 39.265 42.7135L38.6922 42.317L37.6788 43.6829Z" fill="white"/>
<path d="M85.2198 92.6114C82.9948 93.5808 82.4661 96.5328 84.2065 98.2732C85.6384 99.7052 87.6652 99.7052 89.0972 98.2732C91.8289 95.5415 88.7667 91.0693 85.2198 92.6114Z" fill="white"/>
</svg>
