<svg width="26" height="28" viewBox="0 0 26 28" fill="none" xmlns="http://www.w3.org/2000/svg">
<path d="M14.5052 15.8775V2.27942C14.5052 1.49603 13.87 0.86084 13.0866 0.86084C12.3032 0.86084 11.668 1.49603 11.668 2.27942V15.8775L6.99683 11.2063C6.4427 10.6525 5.54469 10.6525 4.99055 11.2063C4.43674 11.7605 4.43674 12.6585 4.99055 13.2126L13.0866 21.3086L21.1826 13.2126C21.7364 12.6585 21.7364 11.7605 21.1826 11.2063C20.6285 10.6525 19.7305 10.6525 19.1763 11.2063L14.5052 15.8775Z" fill="white"/>
<path d="M1.7384 19.3027C2.52179 19.3027 3.15698 19.9379 3.15698 20.7213V22.991C3.15698 24.0879 4.04614 24.977 5.14299 24.977H21.0311C22.1279 24.977 23.0171 24.0879 23.0171 22.991V20.7213C23.0171 19.9379 23.6523 19.3027 24.4356 19.3027C25.219 19.3027 25.8542 19.9379 25.8542 20.7213V22.991C25.8542 25.655 23.695 27.8142 21.0311 27.8142H5.14299C2.47939 27.8142 0.319824 25.655 0.319824 22.991V20.7213C0.319824 19.9379 0.955015 19.3027 1.7384 19.3027Z" fill="white"/>
</svg>
