<svg width="21" height="17" viewBox="0 0 21 17" fill="none" xmlns="http://www.w3.org/2000/svg">
<path d="M18.2422 4.86719L10.2422 9.86719L2.24219 4.86719V2.86719L10.2422 7.86719L18.2422 2.86719V4.86719ZM18.2422 0.867188H2.24219C1.71349 0.869831 1.20732 1.08176 0.834412 1.45654C0.461499 1.83133 0.252191 2.33848 0.252197 2.86719L0.242188 14.8672C0.24377 15.3971 0.454982 15.9051 0.829712 16.2798C1.20444 16.6545 1.71224 16.8656 2.24219 16.8672H18.2422C18.7721 16.8656 19.2799 16.6545 19.6547 16.2798C20.0294 15.9051 20.2406 15.3971 20.2422 14.8672V2.86719C20.2406 2.33724 20.0294 1.82932 19.6547 1.45459C19.2799 1.07986 18.7721 0.86877 18.2422 0.867188Z" fill="#D7D8DA"/>
</svg>
