<svg width="34" height="35" viewBox="0 0 34 35" fill="none" xmlns="http://www.w3.org/2000/svg">
<path fill-rule="evenodd" clip-rule="evenodd" d="M33.2214 13.4932C33.4377 14.0338 33.6539 14.6824 33.6539 15.3311V30.3589C33.6539 31.1156 33.4377 31.7643 33.0052 32.4129L25.0052 24.3047C24.1404 23.3317 22.7349 24.7372 23.5998 25.602L31.708 33.8184C31.0593 34.2509 30.1944 34.5752 29.3296 34.5752H4.57172C3.70687 34.5752 2.84197 34.2508 2.19334 33.8184L10.3015 25.602C11.2746 24.7372 9.86911 23.3318 9.00422 24.3047L0.896014 32.4129C0.571685 31.7643 0.355469 31.1156 0.355469 30.3589V15.3311C0.355469 14.6824 0.46358 14.0337 0.787902 13.4932L13.3291 23.8723C15.3832 25.602 18.5186 25.602 20.5726 23.9804L33.2219 13.4932L33.2214 13.4932Z" fill="#11B0D7"/>
<path fill-rule="evenodd" clip-rule="evenodd" d="M6.19333 15.3314L2.08496 11.9798L14.6262 1.49251C15.9235 0.5195 17.9778 0.411394 19.2751 1.49251L31.9245 11.9798L27.8161 15.3314V12.6286C27.8161 11.4394 26.8431 10.4665 25.5458 10.4665H8.35592C7.1667 10.4665 6.19375 11.4395 6.19375 12.6286L6.19333 15.3314Z" fill="#11B0D7"/>
<path d="M11.382 13.9249C10.7333 13.9249 10.7333 12.8438 11.382 12.8438H22.5176C23.2744 12.8438 23.2744 13.9249 22.5176 13.9249H11.382Z" fill="#11B0D7"/>
<path d="M11.382 18.3585C10.7333 18.3585 10.7333 17.2773 11.382 17.2773H22.5176C23.2744 17.2773 23.2744 18.3585 22.5176 18.3585H11.382Z" fill="#11B0D7"/>
<path d="M11.382 16.1963C10.7333 16.1963 10.7333 15.1152 11.382 15.1152H22.5176C23.2744 15.1152 23.2744 16.1963 22.5176 16.1963H11.382Z" fill="#11B0D7"/>
</svg>
