<svg width="21" height="17" viewBox="0 0 21 17" fill="none" xmlns="http://www.w3.org/2000/svg">
<path d="M18.6079 4.38245L10.6079 9.38245L2.60791 4.38245V2.38245L10.6079 7.38245L18.6079 2.38245V4.38245ZM18.6079 0.382446H2.60791C2.07921 0.38509 1.57305 0.597015 1.20013 0.971802C0.827222 1.34659 0.617913 1.85374 0.61792 2.38245L0.60791 14.3824C0.609493 14.9124 0.820704 15.4203 1.19543 15.795C1.57016 16.1698 2.07796 16.3809 2.60791 16.3824H18.6079C19.1379 16.3809 19.6457 16.1698 20.0204 15.795C20.3951 15.4203 20.6063 14.9124 20.6079 14.3824V2.38245C20.6063 1.8525 20.3951 1.34458 20.0204 0.969849C19.6457 0.595118 19.1379 0.384029 18.6079 0.382446Z" fill="#D7D8DA"/>
</svg>
