<svg width="35" height="35" viewBox="0 0 35 35" fill="none" xmlns="http://www.w3.org/2000/svg">
<path fill-rule="evenodd" clip-rule="evenodd" d="M33.635 13.2652C33.8512 13.8057 34.0675 14.4544 34.0675 15.103V30.1308C34.0675 30.8876 33.8512 31.5363 33.4188 32.1849L25.4188 24.0767C24.5539 23.1037 23.1485 24.5091 24.0134 25.374L32.1216 33.5904C31.4729 34.0228 30.608 34.3471 29.7432 34.3471H4.98529C4.12045 34.3471 3.25555 34.0228 2.60691 33.5904L10.7151 25.374C11.6881 24.5092 10.2827 23.1037 9.41779 24.0767L1.30959 32.1849C0.98526 31.5363 0.769043 30.8876 0.769043 30.1308V15.103C0.769043 14.4544 0.877154 13.8057 1.20148 13.2652L13.7427 23.6443C15.7967 25.374 18.9321 25.374 20.9862 23.7524L33.6355 13.2651L33.635 13.2652Z" fill="#E1221A"/>
<path fill-rule="evenodd" clip-rule="evenodd" d="M6.6069 15.1034L2.49854 11.7517L15.0397 1.26448C16.3371 0.291472 18.3914 0.183367 19.6887 1.26448L32.338 11.7517L28.2297 15.1034V12.4006C28.2297 11.2114 27.2567 10.2384 25.9594 10.2384H8.76949C7.58027 10.2384 6.60733 11.2114 6.60733 12.4006L6.6069 15.1034Z" fill="#E1221A"/>
<path d="M11.7956 13.6973C11.1469 13.6973 11.1469 12.6162 11.7956 12.6162H22.9312C23.6879 12.6162 23.6879 13.6973 22.9312 13.6973H11.7956Z" fill="#E1221A"/>
<path d="M11.7956 18.1304C11.1469 18.1304 11.1469 17.0493 11.7956 17.0493H22.9312C23.6879 17.0493 23.6879 18.1304 22.9312 18.1304H11.7956Z" fill="#E1221A"/>
<path d="M11.7956 15.9678C11.1469 15.9678 11.1469 14.8867 11.7956 14.8867H22.9312C23.6879 14.8867 23.6879 15.9678 22.9312 15.9678H11.7956Z" fill="#E1221A"/>
</svg>
