<svg width="95" height="95" viewBox="0 0 95 95" fill="none" xmlns="http://www.w3.org/2000/svg">
<path d="M78.2188 2.0813V20.8095L68.9492 15.1347V2.0813H78.2188Z" fill="#515182"/>
<path d="M87.488 85.5071V92.9227H7.77002V85.5071H87.488Z" fill="#11B0D7"/>
<path d="M47.6292 78.0914C57.3561 78.0914 65.2413 70.2062 65.2413 60.4793C65.2413 50.7524 57.3561 42.8672 47.6292 42.8672C37.9023 42.8672 30.0171 50.7524 30.0171 60.4793C30.0171 70.2062 37.9023 78.0914 47.6292 78.0914Z" fill="#232C3B"/>
<path d="M93.05 29.8899V39.1594L87.4883 35.7538L86.9933 35.4516L47.6292 11.3508L8.26521 35.4516L7.77022 35.7538L2.2085 39.1594V29.8899L47.6292 2.0813L68.9492 15.1347L78.2187 20.8095L93.05 29.8899Z" fill="#E1221A"/>
<path d="M89.6032 38.6366L88.8421 38.1706V39.0631V91.0689V91.5689H89.3421H93.0499C93.409 91.5689 93.7533 91.7115 94.0072 91.9654C94.2611 92.2193 94.4038 92.5637 94.4038 92.9228C94.4038 93.2819 94.2611 93.6262 94.0072 93.8801C93.7533 94.134 93.409 94.2767 93.0499 94.2767H2.2084C1.84932 94.2767 1.50495 94.134 1.25104 93.8801C0.997135 93.6262 0.854492 93.2819 0.854492 92.9228C0.854492 92.5637 0.997136 92.2193 1.25104 91.9654C1.50495 91.7115 1.84932 91.5689 2.2084 91.5689H5.91622H6.41622V91.0689V39.0631V38.1706L5.65512 38.6366L2.91567 40.314C2.91557 40.3141 2.91546 40.3142 2.91535 40.3142C2.7101 40.4394 2.47523 40.5078 2.23485 40.5122C1.99434 40.5167 1.75698 40.457 1.54714 40.3394C1.3373 40.2218 1.16254 40.0505 1.04081 39.843C0.919134 39.6356 0.854828 39.3996 0.854492 39.1591V29.8899C0.85448 29.6581 0.91398 29.4302 1.0273 29.228C1.14061 29.0257 1.30395 28.856 1.50166 28.735L1.50174 28.735L46.9224 0.926393C47.1351 0.796195 47.3797 0.727295 47.6291 0.727295C47.8785 0.727295 48.1231 0.796179 48.3358 0.926346C48.3358 0.926362 48.3359 0.926377 48.3359 0.926393L66.8341 12.2519L67.5952 12.7178V11.8254V3.93521V3.43521H67.0952H65.2413C64.8822 3.43521 64.5378 3.29257 64.2839 3.03866C64.03 2.78475 63.8874 2.44038 63.8874 2.0813C63.8874 1.72222 64.03 1.37785 64.2839 1.12395C64.5378 0.87004 64.8822 0.727396 65.2413 0.727396H81.9264C82.2855 0.727396 82.6299 0.87004 82.8838 1.12395C83.1377 1.37785 83.2803 1.72222 83.2803 2.0813C83.2803 2.44038 83.1377 2.78475 82.8838 3.03866C82.6299 3.29257 82.2855 3.43521 81.9264 3.43521H80.0725H79.5725V3.93521V19.7713V20.0514L79.8115 20.1977L93.7565 28.735L93.7566 28.735C93.9543 28.856 94.1177 29.0257 94.231 29.228C94.3443 29.4302 94.4038 29.6581 94.4038 29.8899V39.1585C94.4033 39.399 94.3389 39.6351 94.2171 39.8425C94.0953 40.0499 93.9206 40.2212 93.7108 40.3388C93.501 40.4564 93.2636 40.516 93.0232 40.5116C92.783 40.5073 92.5482 40.4392 92.343 40.3143C92.3428 40.3141 92.3425 40.314 92.3423 40.3139L89.6032 38.6366ZM22.1014 83.6532V84.1532H22.6014H72.6569H73.1569V83.6532V37.3055V36.8055H72.6569H22.6014H22.1014V37.3055V83.6532ZM9.12403 83.6532V84.1532H9.62403H18.8936H19.3936V83.6532V37.3055V36.8055H18.8936H9.62403H9.12403V37.3055V83.6532ZM14.5817 33.1713L13.0685 34.0977H14.8428H80.4155H82.1898L80.6766 33.1713L47.8902 13.099L47.6291 12.9392L47.3681 13.099L14.5817 33.1713ZM76.3647 36.8055H75.8647V37.3055V83.6532V84.1532H76.3647H85.6342H86.1342V83.6532V37.3055V36.8055H85.6342H76.3647ZM70.803 3.43521H70.303V3.93521V14.0946V14.3748L70.5419 14.521L76.1036 17.9267L76.8647 18.3927V17.5003V3.93521V3.43521H76.3647H70.803ZM3.80124 30.5017L3.56231 30.648V30.9281V35.8502V36.7426L4.32338 36.2767L46.9224 10.1959C46.9224 10.1959 46.9224 10.1959 46.9225 10.1959C47.1352 10.0657 47.3797 9.99683 47.6291 9.99683C47.8785 9.99683 48.1231 10.0657 48.3358 10.1959C48.3358 10.1959 48.3358 10.1959 48.3359 10.1959L90.9349 36.2785L91.696 36.7445V35.8521V30.93V30.6498L91.457 30.5035L47.8902 3.82951L47.6291 3.66967L47.3681 3.82951L3.80124 30.5017ZM9.12403 91.0689V91.5689H9.62403H85.6342H86.1342V91.0689V87.3611V86.8611H85.6342H9.62403H9.12403V87.3611V91.0689Z" fill="white" stroke="#00647C"/>
<path d="M51.9419 61.1233L51.9421 61.1234C52.1339 61.2192 52.3003 61.3592 52.4274 61.5319C52.5544 61.7047 52.6386 61.9051 52.673 62.1168C52.7074 62.3285 52.691 62.5453 52.6251 62.7493C52.5592 62.9534 52.4457 63.1389 52.294 63.2905L52.2939 63.2906L46.7322 68.8523L46.7321 68.8523L46.7261 68.8585C46.6012 68.9878 46.4518 69.091 46.2866 69.1619C46.1215 69.2329 45.9438 69.2702 45.764 69.2718C45.5843 69.2734 45.406 69.2391 45.2396 69.171C45.0732 69.1029 44.922 69.0024 44.7949 68.8753C44.6678 68.7482 44.5672 68.597 44.4992 68.4306C44.4311 68.2642 44.3968 68.0859 44.3984 67.9062C44.4 67.7264 44.4373 67.5487 44.5083 67.3836C44.5792 67.2184 44.6824 67.069 44.8117 66.9441L44.8117 66.9441L44.8179 66.938L48.5609 63.195L49.0515 62.7043L48.4309 62.3942L43.316 59.8376L43.3158 59.8375C43.124 59.7417 42.9576 59.6017 42.8305 59.429C42.7035 59.2562 42.6193 59.0558 42.5849 58.8441C42.5505 58.6324 42.5669 58.4156 42.6328 58.2115C42.6987 58.0075 42.8122 57.822 42.9639 57.6704L42.964 57.6703L48.5224 52.1119C48.7774 51.867 49.1182 51.7316 49.4718 51.7347C49.8268 51.7378 50.1664 51.8801 50.4174 52.1312C50.6685 52.3822 50.8108 52.7218 50.8139 53.0768C50.817 53.4304 50.6816 53.7712 50.4367 54.0262L46.697 57.7659L46.2064 58.2565L46.827 58.5667L51.9419 61.1233Z" fill="white" stroke="#232C3B"/>
<path d="M47.6291 76.7377H47.6297C51.9399 76.7326 56.0722 75.0181 59.12 71.9703C62.1678 68.9225 63.8823 64.7903 63.8873 60.48V60.4795C63.8873 57.2639 62.9338 54.1205 61.1473 51.4469C59.3609 48.7732 56.8217 46.6894 53.8509 45.4588C50.8801 44.2283 47.6111 43.9063 44.4573 44.5336C41.3035 45.161 38.4066 46.7094 36.1328 48.9832C33.8591 51.2569 32.3106 54.1539 31.6833 57.3076C31.056 60.4614 31.3779 63.7304 32.6085 66.7012C33.839 69.672 35.9229 72.2112 38.5965 73.9977C41.2702 75.7841 44.4136 76.7377 47.6291 76.7377ZM37.0922 44.7098C40.211 42.6258 43.8778 41.5135 47.6289 41.5134C52.6573 41.519 57.4782 43.519 61.0339 47.0747C64.5896 50.6304 66.5897 55.4514 66.5952 60.48C66.5951 64.2309 65.4827 67.8976 63.3988 71.0164C61.3148 74.1354 58.3527 76.5663 54.8871 78.0018C51.4215 79.4373 47.6081 79.8129 43.929 79.0811C40.25 78.3493 36.8706 76.5429 34.2181 73.8905C31.5657 71.238 29.7593 67.8586 29.0275 64.1796C28.2957 60.5005 28.6713 56.6871 30.1068 53.2215C31.5423 49.7559 33.9732 46.7938 37.0922 44.7098Z" fill="white" stroke="#00647C"/>
</svg>
