<svg width="110" height="110" viewBox="0 0 110 110" fill="none" xmlns="http://www.w3.org/2000/svg">
<path d="M20.963 0.467655C18.1966 0.800228 15.6418 1.49561 13.6312 2.43287C7.07041 5.50163 2.38413 11.5636 1.06895 18.6686C0.660788 20.8001 0.706139 24.7456 1.12942 26.7713C2.74694 34.3449 7.64486 40.2708 14.6289 43.1128C17.1837 44.1559 19.0582 44.5338 22.0967 44.6245C25.2411 44.7303 27.1761 44.4734 29.746 43.6117C33.2531 42.4477 35.823 40.8604 38.4987 38.1695C41.0837 35.5845 42.6862 33.06 43.835 29.7645C44.7421 27.1341 44.9235 25.9247 44.9235 22.4478C44.9235 19.6209 44.8781 19.1977 44.5153 17.6406C43.5176 13.4532 41.4768 9.8251 38.4231 6.80169C34.402 2.82591 29.1866 0.60371 23.5329 0.452538C22.4142 0.422302 21.2502 0.43742 20.963 0.467655ZM25.9516 4.08063C30.5169 4.83648 34.9311 7.48196 37.758 11.1856C42.0815 16.8545 42.8373 24.3526 39.7232 30.7017C38.6348 32.8937 37.4405 34.5263 35.7172 36.1741C26.6167 44.7757 11.802 42.1604 6.16339 30.9436C2.98881 24.6247 3.66908 17.0208 7.90185 11.367C10.759 7.57266 15.0069 4.9423 19.6931 4.09575C21.2955 3.80852 24.1829 3.80852 25.9516 4.08063Z" fill="white"/>
<path d="M74.3719 20.9059C74.0242 20.9512 74.0242 20.9815 74.0242 23.4455V25.9247H66.1936C61.1747 25.9247 58.0304 25.9852 57.4559 26.091C54.7197 26.5899 52.4068 28.9633 51.9533 31.7448C51.8777 32.2437 51.8021 35.7659 51.8021 39.5603V46.4688L42.4749 46.5142C33.1931 46.5595 33.1326 46.5595 32.3012 46.8921C30.0185 47.8293 28.3556 49.9911 28.0835 52.3796L27.9928 53.211L20.3587 53.2866C11.9536 53.3773 12.256 53.3471 10.6687 54.3599C9.15697 55.3274 8.00807 57.0658 7.66038 58.8648C7.5848 59.3183 7.50921 61.6765 7.50921 64.1104V68.5548H4.10788H0.706543V89.0384V109.522H12.649H24.5915V89.0384V68.5548H21.1901H17.7888V65.9849V63.415H22.853H27.9172L27.9323 86.2417C27.9474 98.7889 27.9626 109.159 27.9777 109.25C28.0079 109.537 70.5473 109.613 70.5473 109.341C70.5473 109.235 70.5473 96.2794 70.5473 80.5577C70.5473 49.5073 70.5926 51.3818 69.7158 49.8701C68.3855 47.6026 66.3598 46.4839 63.5632 46.4839H62.0817V41.3441V36.2043H68.0529H74.0242L74.0544 53.9971L74.0998 71.805L74.4475 72.6666C75.2184 74.5714 76.715 76.0226 78.6349 76.7482C79.5419 77.0959 79.5872 77.0959 89.5645 77.1413L99.572 77.1866V78.8344V80.4973H89.8971C83.4119 80.4973 79.9803 80.5577 79.4361 80.6635C78.2721 80.9054 76.715 81.7822 75.9138 82.6288C75.5359 83.0369 74.9614 83.8986 74.6591 84.5486L74.0998 85.7126L74.0544 91.9711C74.0091 98.6377 74.0393 99.1214 74.7347 100.573C75.1277 101.389 76.5034 102.961 77.1232 103.294C77.4104 103.445 77.4255 103.626 77.4557 106.302C77.4709 107.859 77.486 109.235 77.486 109.325C77.5011 109.477 77.9395 109.522 79.164 109.522H80.8269V106.952V104.382H91.9379H103.049V106.952V109.522H104.712H106.375V106.952V104.382H108.113H109.852V102.644V100.905L94.7648 100.875L79.678 100.83L79.043 100.406C78.6954 100.18 78.2267 99.711 78 99.3633L77.5767 98.7284V92.4397V86.151L78 85.5161C78.2267 85.1684 78.6954 84.6998 79.043 84.473L79.678 84.0498L91.3634 84.0044L103.049 83.9742V78.8344V73.6946H91.5751H80.1012L79.3 73.2713C78.6651 72.9539 78.3779 72.6666 78 72.0317L77.5011 71.2154V66.4838V61.7521H79.164H80.8269L80.8571 66.0151L80.9024 70.2933L92.2402 70.3235C99.9348 70.3537 103.759 70.4142 104.152 70.52C104.939 70.7468 106.012 71.8352 106.223 72.6213C106.329 73.0294 106.375 75.1912 106.344 79.1065L106.299 84.987L105.846 85.7126C105.513 86.2568 105.165 86.5743 104.576 86.8766L103.775 87.2999H92.3007H80.8269V92.4397V97.5795H95.3392H109.852V95.8411V94.1026H97.0777H84.3038V92.4397V90.792L94.4019 90.7466C104.455 90.7013 104.485 90.7013 105.316 90.3687C107.221 89.5826 108.688 88.1314 109.428 86.272C109.761 85.4254 109.776 85.2591 109.821 79.3181C109.852 75.297 109.821 72.9539 109.7 72.4248C109.156 69.8095 107.07 67.6327 104.545 67.0582C104.137 66.9524 100.146 66.8919 94.0996 66.8919H84.3038V64.322V61.7521H97.0777H109.852L109.821 41.3441L109.776 20.9361L92.2402 20.8908C82.5955 20.8757 74.5533 20.8757 74.3719 20.9059ZM106.375 41.3441V58.4113L91.9379 58.4264H77.5011V41.3441V24.2619H91.9379H106.375V41.3441ZM74.0242 31.0645V32.7274H66.3901C59.2246 32.7274 58.756 32.7425 58.756 32.9844C58.756 33.1356 58.7257 36.2195 58.7106 39.8324L58.6804 46.4083L56.9873 46.4537L55.2791 46.499V39.4394C55.2791 34.4054 55.3244 32.2134 55.4605 31.775C55.7023 30.9738 56.7152 29.8854 57.471 29.6284C57.9548 29.4621 59.6176 29.4168 66.0575 29.4017H74.0242V31.0645ZM65.2563 50.1725C65.997 50.5655 66.4505 51.0039 66.8134 51.6993L67.1459 52.304L67.1913 79.167L67.2215 106.045H49.3078H31.3941L31.4244 79.167L31.4697 52.304L31.893 51.5935C32.3465 50.8225 32.9512 50.3236 33.7977 50.0213C34.2361 49.855 37.3805 49.8248 49.5346 49.855C64.0469 49.8853 64.7574 49.9004 65.2563 50.1725ZM27.9172 56.8693C27.9323 57.5345 27.9474 59.7264 27.9323 59.8927C27.9172 60.0439 26.4509 60.0893 21.1145 60.0893H14.3119V64.322V68.5548H12.649H10.9861V64.0802C10.9861 61.1626 11.0466 59.3939 11.1524 59.0159C11.485 57.9426 12.4676 57.0356 13.6316 56.7484C13.8886 56.6879 17.1992 56.6426 21.0087 56.6275C27.4939 56.6123 27.9172 56.6275 27.9172 56.8693ZM21.2657 88.4639C21.2657 97.519 21.2204 105.168 21.175 105.471L21.0692 106.045H12.6339H4.18346V104.382V102.719H10.9861H17.7888V100.981V99.2424H10.9861H4.18346V89.0384V78.8344H10.9861H17.7888V77.0959V75.3575H10.9861H4.18346V73.6946V72.0317H12.7246H21.2657V88.4639Z" fill="white"/>
<path d="M80.8271 39.6058V41.3442H82.5656H84.3041V39.6058V37.8673H82.5656H80.8271V39.6058Z" fill="white"/>
<path d="M80.8271 46.4085V48.147H82.5656H84.3192L84.2738 46.4387L84.2285 44.7456L82.5354 44.7003L80.8271 44.6549V46.4085Z" fill="white"/>
<path d="M80.8271 53.2112V54.9497H82.5656H84.3192L84.2738 53.2415L84.2285 51.5484L82.5354 51.503L80.8271 51.4577V53.2112Z" fill="white"/>
<path d="M34.8711 72.0316V90.7768L37.4108 90.807L39.9353 90.8524V95.0095V99.1667L38.2422 99.2121L36.534 99.2574V100.981V102.719H50.1393H63.7446V100.981V99.2423H61.2503H58.756V95.0095V90.7768H61.2503H63.7446V72.0316V53.2865H49.3079H34.8711V72.0316ZM60.4189 65.9848V75.3574H49.3079H38.1968V66.0907C38.1968 60.9811 38.2422 56.7634 38.3027 56.7181C38.348 56.6576 43.3518 56.6123 49.4137 56.6123H60.4189V65.9848ZM60.4189 83.0671V87.2999H49.3079H38.1968V83.0671V78.8343H49.3079H60.4189V83.0671ZM55.2791 95.0095V99.2423H49.3079H43.3366V95.0095V90.7768H49.3079H55.2791V95.0095Z" fill="white"/>
<path d="M27.7992 22.7541L22.2244 19.9677L26.304 15.8882C26.672 15.5071 26.8757 14.9967 26.8711 14.4669C26.8665 13.9371 26.654 13.4303 26.2793 13.0557C25.9047 12.681 25.3979 12.4685 24.8681 12.4639C24.3384 12.4593 23.828 12.663 23.4469 13.0311L17.3851 19.0928C17.1591 19.3194 16.99 19.5965 16.8919 19.9012C16.7937 20.2059 16.7693 20.5296 16.8206 20.8455C16.8718 21.1615 16.9974 21.4608 17.1869 21.7188C17.3763 21.9769 17.6243 22.1862 17.9105 22.3298L23.4853 25.1161L19.4057 29.1957C19.0376 29.5768 18.834 30.0872 18.8386 30.617C18.8432 31.1467 19.0557 31.6535 19.4303 32.0282C19.805 32.4028 20.3117 32.6153 20.8415 32.6199C21.3713 32.6245 21.8817 32.4208 22.2628 32.0528L28.3245 25.991C28.551 25.7648 28.7203 25.4879 28.8187 25.1833C28.9171 24.8786 28.9416 24.555 28.8903 24.239C28.839 23.9231 28.7133 23.6238 28.5236 23.366C28.3339 23.1082 28.0856 22.8991 27.7992 22.7561V22.7541Z" fill="white"/>
</svg>
