<svg width="115" height="115" viewBox="0 0 115 115" fill="none" xmlns="http://www.w3.org/2000/svg">
<path d="M108.796 19.4071H22.9341V6.05085C22.9324 4.53294 22.3285 3.07801 21.2561 2.00471C20.1828 0.932283 18.7279 0.328361 17.21 0.32666H11.4858C8.45086 0.330067 5.54017 1.53708 3.39466 3.68372C1.2481 5.82941 0.0410866 8.74014 0.0375977 11.7749V84.2804C0.0410049 87.3154 1.24801 90.2261 3.39466 92.3716C5.54034 94.5182 8.45107 95.7252 11.4858 95.7287H44.3434C48.617 99.934 54.1869 102.57 60.1485 103.209C66.1103 103.848 72.112 102.452 77.1796 99.2476L90.9933 113.061H90.9942C92.1092 114.185 93.6262 114.819 95.2089 114.821C96.7924 114.825 98.3113 114.197 99.4312 113.078C100.55 111.958 101.179 110.439 101.177 108.856C101.174 107.273 100.541 105.756 99.4176 104.64L90.5061 95.7289H108.796C110.314 95.7272 111.769 95.1233 112.842 94.0509C113.915 92.9776 114.518 91.5227 114.52 90.0048V25.1314C114.518 23.6135 113.915 22.1585 112.842 21.0852C111.769 20.0128 110.314 19.4088 108.796 19.4071ZM110.704 35.4611L95.6706 50.4945C95.3129 50.8522 95.1118 51.3377 95.1118 51.8437C95.1118 52.3497 95.3129 52.8352 95.6706 53.193L110.704 68.2264V73.6225L92.973 55.8915V55.8906C92.6152 55.5329 92.1297 55.3319 91.6237 55.3319C91.1177 55.3319 90.6322 55.5329 90.2745 55.8906L84.8452 61.3199H84.846C84.1075 60.2748 83.2949 59.2833 82.4151 58.3539L92.3462 48.4227H92.3471C92.7048 48.0649 92.9059 47.5794 92.9059 47.0734C92.9059 46.5674 92.7049 46.0819 92.3471 45.7242L69.8453 23.2224H75.2415L95.0441 43.0259C95.4018 43.3836 95.8874 43.5846 96.3933 43.5846C96.8993 43.5846 97.3848 43.3836 97.7426 43.0259L110.704 30.0647L110.704 35.4611ZM110.704 40.8572V62.8291L99.7183 51.8434L110.704 40.8572ZM51.4981 52.5772L41.4561 42.5343C41.0983 42.1766 40.6128 41.9755 40.1068 41.9755C39.6009 41.9755 39.1153 42.1766 38.7576 42.5343L22.9346 58.3573V52.962L36.0599 39.8367C36.4177 39.4789 36.6187 38.9934 36.6187 38.4874C36.6187 37.9815 36.4177 37.4959 36.0599 37.1382L22.9346 24.0128V23.2232H27.5403L55.378 51.0588C54.0467 51.4617 52.7502 51.9694 51.4989 52.5767L51.4981 52.5772ZM22.9341 29.4103L32.0118 38.488L22.9341 47.5657V29.4103ZM59.852 50.139L32.9366 23.2236H64.4488L88.3004 47.0752L79.611 55.7646H79.6119C74.0624 51.2849 66.9294 49.255 59.8535 50.1401L59.852 50.139ZM110.626 24.7479L96.3926 38.9799L80.6368 23.2241H108.795C109.689 23.2326 110.454 23.8697 110.626 24.7479ZM11.4859 4.14368H17.21C18.2637 4.14453 19.1172 4.99804 19.1181 6.05172V70.9251C19.1172 71.9788 18.2637 72.8323 17.21 72.8331H11.4859C8.66549 72.834 5.94583 73.8817 3.85374 75.7726V11.7758C3.8563 9.75196 4.6604 7.81235 6.09149 6.38143C7.52259 4.95051 9.46207 4.1463 11.4859 4.14368ZM3.85374 84.2814C3.8563 82.2575 4.6604 80.3179 6.09149 78.887C7.52259 77.456 9.46207 76.6518 11.4859 76.6492H17.21C18.7279 76.6475 20.1829 76.0436 21.2562 74.9712C22.3286 73.8979 22.9325 72.443 22.9342 70.925V63.7554L40.1066 46.583L48.0497 54.5261C42.1186 58.521 38.0426 64.7334 36.7377 71.7641C35.4328 78.7958 37.0095 86.0566 41.1125 91.9135H11.4866C9.46275 91.9109 7.52313 91.1068 6.09221 89.6757C4.66129 88.2446 3.85708 86.3051 3.85446 84.2813L3.85374 84.2814ZM40.1065 76.6492C40.1065 70.5766 42.5187 64.7529 46.8128 60.459C51.1069 56.1651 56.9304 53.7527 63.003 53.7527C69.0756 53.7527 74.8994 56.1649 79.1932 60.459C83.4871 64.7531 85.8995 70.5766 85.8995 76.6492C85.8995 82.7218 83.4873 88.5456 79.1932 92.8394C74.8991 97.1333 69.0756 99.5457 63.003 99.5457C56.9322 99.5389 51.1127 97.1241 46.8204 92.8318C42.5281 88.5395 40.1133 82.7201 40.1065 76.6492ZM96.7197 110.366C95.8739 111.177 94.5391 111.177 93.6932 110.366L80.2977 96.9704C81.3846 96.0436 82.3965 95.0317 83.3233 93.9448L96.718 107.339C97.5519 108.175 97.5528 109.529 96.7197 110.366ZM108.796 91.9142H86.6887L85.6009 90.8264C90.5958 82.949 91.0738 73.0237 86.859 64.7026L91.6223 59.9402L110.703 79.0206V90.0063C110.702 91.06 109.848 91.9135 108.795 91.9144L108.796 91.9142ZM63.0028 57.5695C57.9422 57.5695 53.0895 59.5797 49.5111 63.1582C45.9327 66.7366 43.9224 71.5893 43.9224 76.6499C43.9224 81.7104 45.9326 86.5632 49.5111 90.1416C53.0895 93.72 57.9422 95.7303 63.0028 95.7303C68.0633 95.7303 72.9161 93.72 76.4945 90.1416C80.0729 86.5631 82.0832 81.7104 82.0832 76.6499C82.0772 71.5911 80.0653 66.7416 76.4886 63.1641C72.9111 59.5874 68.0616 57.5754 63.0028 57.5695ZM63.0028 91.9142C58.9542 91.9142 55.0717 90.306 52.2096 87.4431C49.3467 84.581 47.7385 80.6984 47.7385 76.6499C47.7385 72.6013 49.3467 68.7188 52.2096 65.8567C55.0717 62.9938 58.9542 61.3855 63.0028 61.3855C67.0513 61.3855 70.9339 62.9938 73.796 65.8567C76.6589 68.7188 78.2671 72.6013 78.2671 76.6499C78.2628 80.6969 76.6529 84.5769 73.7909 87.438C70.9298 90.3001 67.0498 91.91 63.0028 91.9142Z" fill="white"/>
</svg>
