<svg width="19" height="20" viewBox="0 0 19 20" fill="none" xmlns="http://www.w3.org/2000/svg">
<path fill-rule="evenodd" clip-rule="evenodd" d="M18.6681 8.01709C18.8562 8.3306 18.9189 8.64412 18.9189 9.02026V17.4846C18.9189 17.9235 18.7935 18.2997 18.6054 18.6759L14.091 14.0989C13.5894 13.5973 12.7743 14.3497 13.2759 14.8513L17.8528 19.4912C17.4767 19.742 17.0377 19.8674 16.5361 19.8674H2.55411C2.05247 19.8674 1.61356 19.742 1.23742 19.4912L5.81437 14.8513C6.31601 14.3497 5.50086 13.5972 4.99922 14.0989L0.484898 18.6759C0.296765 18.2997 0.171387 17.9235 0.171387 17.4846V9.02026C0.171387 8.64412 0.234144 8.3306 0.422144 8.01709L7.50728 13.8483C8.63581 14.7888 10.4541 14.8515 11.5829 13.9111L18.668 8.01722L18.6681 8.01709Z" fill="#D7D8DA"/>
<path fill-rule="evenodd" clip-rule="evenodd" d="M10.8303 13.0331C10.1406 13.5973 8.94934 13.5973 8.19695 13.0331L1.11182 7.13922L8.19695 1.24538C8.94934 0.68112 10.1406 0.618356 10.8303 1.24538L17.978 7.13922L10.8303 13.0331Z" fill="#D7D8DA"/>
</svg>
