<svg width="112" height="112" viewBox="0 0 112 112" fill="none" xmlns="http://www.w3.org/2000/svg">
<path d="M25.7754 107.768H86.7553V111.355H25.7754V107.768Z" fill="white"/>
<path d="M75.9951 98.8013H79.5824V109.563H75.9951V98.8013Z" fill="white"/>
<path d="M110.071 89.8345H30.6183L25.2376 86.2472H2.45996V82.6606H26.3138L31.6946 86.2472H110.071V89.8345Z" fill="white"/>
<path d="M22.1895 89.834H25.7768V93.4213H22.1895V89.834Z" fill="white"/>
<path d="M15.0146 89.834H18.602V93.4213H15.0146V89.834Z" fill="white"/>
<path d="M7.84131 89.834H11.4286V93.4213H7.84131V89.834Z" fill="white"/>
<path d="M102.897 100.594H40.124V97.0077H102.897C104.323 97.0077 105.692 96.4407 106.702 95.4316C107.711 94.4225 108.277 93.0541 108.277 91.627V34.2352C108.277 32.8081 107.711 31.4398 106.702 30.4307C105.692 29.4216 104.323 28.8546 102.897 28.8546H64.8754V25.2681H102.897C105.275 25.2681 107.556 26.2128 109.238 27.8945C110.92 29.5762 111.864 31.8573 111.864 34.2355V91.6273C111.864 94.0056 110.92 96.2867 109.238 97.9684C107.556 99.65 105.275 100.595 102.897 100.595V100.594Z" fill="white"/>
<path d="M36.5357 109.563H32.9492V100.595H9.63349C7.25526 100.595 4.97412 99.6506 3.29246 97.9688C1.6108 96.2871 0.666016 94.0061 0.666016 91.6278V34.236C0.666016 31.8578 1.61076 29.5767 3.29246 27.895C4.97416 26.2133 7.25526 25.2686 9.63349 25.2686H36.8947V28.8559L9.63349 28.8551C8.20707 28.8551 6.83807 29.4221 5.82895 30.4312C4.81984 31.4403 4.2536 32.8087 4.2536 34.2358V91.6275C4.2536 93.0547 4.81984 94.423 5.82895 95.4321C6.83807 96.4412 8.20719 97.0082 9.63349 97.0082H36.5353L36.5357 109.563Z" fill="white"/>
<path d="M50.8843 53.8576L35.4961 28.2285C33.8285 25.4424 32.9481 22.2568 32.9497 19.0099V18.0954C32.9497 11.6876 36.368 5.76635 41.917 2.56287C47.4659 -0.641401 54.3026 -0.641401 59.8523 2.56287C65.4013 5.76635 68.8196 11.6876 68.8196 18.0954V19.0099C68.8204 22.2568 67.94 25.4424 66.2724 28.2285L50.8843 53.8576ZM50.8843 3.74723C47.0789 3.74723 43.4295 5.2582 40.7387 7.9489C38.0479 10.6405 36.5362 14.2899 36.5362 18.0953V19.0098C36.5316 21.6074 37.239 24.157 38.5809 26.3808L50.8843 46.8987L63.1877 26.3808C64.5295 24.157 65.2369 21.6074 65.2323 19.0098V18.0953C65.2323 14.2899 63.7206 10.6405 61.0298 7.9489C58.3391 5.25812 54.6896 3.74723 50.8843 3.74723Z" fill="white"/>
<path d="M61.6465 71.8994H104.69V75.4867H61.6465V71.8994Z" fill="white"/>
<path d="M61.6465 79.0742H104.69V82.6615H61.6465V79.0742Z" fill="white"/>
<path d="M31.1564 71.8998C26.8755 71.8998 22.7702 70.1996 19.7428 67.1721C16.7163 64.1448 15.0151 60.0392 15.0151 55.7585C15.0151 51.4778 16.7161 47.3722 19.7428 44.3449C22.7702 41.3175 26.8757 39.6172 31.1564 39.6172C35.4379 39.6172 39.5435 41.3174 42.5709 44.3449C45.5974 47.3722 47.2985 51.4778 47.2985 55.7585C47.2985 60.0392 45.5975 64.1448 42.5709 67.1721C39.5435 70.1995 35.4379 71.8998 31.1564 71.8998ZM31.1564 43.2029C27.8273 43.2029 24.6339 44.5254 22.2791 46.8804C19.9251 49.2344 18.6024 52.4279 18.6024 55.7577C18.6024 59.0875 19.9249 62.281 22.2791 64.635C24.6339 66.9898 27.8273 68.3125 31.1564 68.3125C34.4864 68.3125 37.6798 66.99 40.0338 64.635C42.3886 62.281 43.7112 59.0875 43.7112 55.7577C43.7112 52.4279 42.3887 49.2344 40.0338 46.8804C37.6798 44.5256 34.4862 43.2029 31.1564 43.2029Z" fill="white"/>
<path d="M76.3881 66.52L69.7159 57.552H50.8838V55.7587C50.8853 53.6946 50.5642 51.6438 49.9336 49.6784L53.341 48.5847C53.9328 50.326 54.3121 52.1325 54.4711 53.9654H71.5092L75.5984 59.3462L82.9337 42.8457L89.5702 53.9654H104.689V57.5528L87.5256 57.552L83.4007 50.6649L76.3881 66.52Z" fill="white"/>
<path d="M31.157 79.0737C22.8273 79.0737 15.1305 74.63 10.9647 67.4164C6.80017 60.2021 6.80017 51.3146 10.9647 44.1007C15.1301 36.8872 22.8267 32.4434 31.157 32.4434C35.9706 32.4303 40.6673 33.9234 44.5904 36.7118L42.5279 39.6175C37.9144 36.3628 32.128 35.2413 26.6332 36.5357C21.1377 37.8303 16.4607 41.4169 13.7846 46.388C11.1085 51.3583 10.6905 57.2379 12.6366 62.5378C14.5819 67.8372 18.7046 72.0496 23.9619 74.1083C29.2185 76.1677 35.1049 75.8753 40.1328 73.3071C45.1597 70.738 48.8465 66.1392 50.2581 60.6733L53.7376 61.5699C52.4484 66.5792 49.5303 71.0165 45.4428 74.1859C41.3551 77.3544 36.3296 79.074 31.1569 79.074L31.157 79.0737Z" fill="white"/>
<path d="M31.1567 61.1388C29.7303 61.1388 28.3613 60.5718 27.3522 59.5626C26.3431 58.5535 25.7769 57.1852 25.7769 55.7581C25.7769 54.331 26.3431 52.9627 27.3522 51.9536C28.3613 50.9444 29.7304 50.3774 31.1567 50.3774C32.5839 50.3774 33.953 50.9444 34.9613 51.9536C35.9704 52.9627 36.5374 54.331 36.5374 55.7581C36.5374 57.1852 35.9704 58.5535 34.9613 59.5626C33.9529 60.5718 32.5838 61.1388 31.1567 61.1388ZM31.1567 53.9648C30.4315 53.9648 29.7776 54.4014 29.4999 55.0716C29.2222 55.7418 29.3758 56.5135 29.8885 57.0263C30.402 57.539 31.173 57.6925 31.8432 57.4149C32.5134 57.1372 32.9508 56.4833 32.9508 55.758C32.9508 55.2826 32.7616 54.8265 32.4249 54.4899C32.0891 54.1532 31.633 53.9648 31.1567 53.9648Z" fill="white"/>
<path d="M15.543 42.6803L18.0793 40.144L29.8863 51.951L27.35 54.4873L15.543 42.6803Z" fill="white"/>
<path d="M50.8846 28.8563C48.031 28.8563 45.2937 27.7223 43.2755 25.7049C41.2572 23.6867 40.124 20.9494 40.124 18.0958C40.124 15.2414 41.2572 12.5042 43.2755 10.4867C45.2937 8.46849 48.031 7.33447 50.8846 7.33447C53.739 7.33447 56.4762 8.46847 58.4936 10.4867C60.5119 12.5042 61.6459 15.2414 61.6459 18.0958C61.6459 20.9494 60.5119 23.6867 58.4936 25.7049C56.4762 27.7223 53.739 28.8563 50.8846 28.8563ZM50.8846 10.9218C48.9819 10.9218 47.1575 11.6773 45.8118 13.023C44.4668 14.368 43.7105 16.1931 43.7105 18.0958C43.7105 19.9985 44.4668 21.8229 45.8118 23.1686C47.1575 24.5136 48.9819 25.2698 50.8846 25.2698C52.7872 25.2698 54.6123 24.5136 55.9573 23.1686C57.3031 21.8228 58.0586 19.9985 58.0586 18.0958C58.0586 16.1931 57.3031 14.3681 55.9573 13.023C54.6124 11.6773 52.7872 10.9218 50.8846 10.9218Z" fill="white"/>
</svg>
