<svg width="17" height="21" viewBox="0 0 17 21" fill="none" xmlns="http://www.w3.org/2000/svg">
<path d="M2.02979 2.38245H7.02979V10.3824L4.52979 8.88245L2.02979 10.3824V2.38245ZM14.0298 0.382446H2.02979C1.49976 0.383766 0.991822 0.595062 0.617035 0.969849C0.242248 1.34464 0.0311053 1.85242 0.0297852 2.38245V18.3824C0.0313679 18.9124 0.242595 19.4203 0.617325 19.795C0.992055 20.1698 1.49984 20.3809 2.02979 20.3824H14.0298C14.5597 20.3809 15.0675 20.1698 15.4423 19.795C15.817 19.4203 16.0282 18.9124 16.0298 18.3824V2.38245C16.0282 1.8525 15.817 1.34458 15.4423 0.969849C15.0675 0.595118 14.5597 0.384029 14.0298 0.382446Z" fill="#D7D8DA"/>
</svg>
