<svg width="17" height="17" viewBox="0 0 17 17" fill="none" xmlns="http://www.w3.org/2000/svg">
<path d="M4.33879 10.8737C6.85179 13.9737 12.9768 16.9513 14.4548 16.2823C14.9898 16.0475 15.4415 15.6567 15.7506 15.1608C16.0596 14.6649 16.2117 14.0873 16.1868 13.5035C16.1228 12.8355 12.7658 10.7884 11.9208 10.4034C11.0758 10.0184 10.1048 11.2653 9.63978 11.8033C9.15378 12.3203 7.2958 10.7473 6.4928 9.94934C6.4928 9.94934 4.38079 7.53568 4.86679 7.01868C5.35279 6.50168 6.55679 5.46761 6.13479 4.62561C5.71279 3.78361 3.57879 0.42554 2.90379 0.37854C2.32405 0.380955 1.7592 0.562458 1.28648 0.898071C0.81376 1.23368 0.456233 1.70702 0.262785 2.25354C-0.328215 3.78354 2.50179 9.62567 5.64879 12.0607" fill="#D7D8DA"/>
</svg>
