<svg width="17" height="17" viewBox="0 0 17 17" fill="none" xmlns="http://www.w3.org/2000/svg">
<path d="M4.97014 11.3584C7.48314 14.4584 13.6081 17.4361 15.0861 16.7671C15.6212 16.5323 16.0729 16.1414 16.3819 15.6455C16.691 15.1496 16.843 14.5721 16.8181 13.9883C16.7541 13.3203 13.3971 11.2732 12.5521 10.8882C11.7071 10.5032 10.7361 11.7501 10.2711 12.2881C9.78513 12.8051 7.92714 11.2321 7.12414 10.4341C7.12414 10.4341 5.01214 8.02042 5.49814 7.50342C5.98414 6.98642 7.18814 5.95235 6.76614 5.11035C6.34414 4.26835 4.21014 0.910281 3.53514 0.863281C2.9554 0.865696 2.39055 1.0472 1.91783 1.38281C1.44511 1.71843 1.08758 2.19177 0.894132 2.73828C0.303132 4.26828 3.13313 10.1104 6.28013 12.5454" fill="#D7D8DA"/>
</svg>
