<svg width="30" height="30" viewBox="0 0 30 30" fill="none" xmlns="http://www.w3.org/2000/svg">
<path d="M8.31283 19.7112C12.8967 25.3742 24.0662 30.7969 26.7618 29.5765C27.7377 29.1481 28.5614 28.4354 29.1249 27.5308C29.6884 26.6262 29.9653 25.572 29.9196 24.5072C29.8034 23.2904 23.68 19.5549 22.1413 18.8477C20.6026 18.1405 18.8333 20.4198 17.9813 21.4042C17.0953 22.3474 13.7058 19.4746 12.2414 18.0218C12.2414 18.0218 8.38974 13.6216 9.27575 12.6784C10.1618 11.7351 12.3576 9.84975 11.5879 8.31107C10.8181 6.77239 6.92618 0.654189 5.69416 0.568359C4.63706 0.572667 3.60708 0.902832 2.74513 1.51481C1.88318 2.12678 1.23136 2.99088 0.878758 3.98745C-0.198586 6.77781 4.96286 17.4295 10.7027 21.8774" fill="#11B0D7"/>
</svg>
