<svg width="96" height="95" viewBox="0 0 96 95" fill="none" xmlns="http://www.w3.org/2000/svg">
<path d="M93.2713 26.1828V35.4524H71.0244V24.3289L82.1479 20.6211L93.2713 26.1828Z" fill="#E1221A"/>
<path d="M82.1483 63.261H50.6318V92.9235H82.1483V63.261Z" fill="#11B0D7"/>
<path d="M82.1483 61.4072V63.2611H50.6318V61.4072C50.6318 59.9321 51.2178 58.5175 52.2608 57.4745C53.3039 56.4314 54.7185 55.8455 56.1936 55.8455H76.5865C78.0616 55.8455 79.4762 56.4314 80.5193 57.4745C81.5623 58.5175 82.1483 59.9321 82.1483 61.4072Z" fill="#11B0D7"/>
<path d="M74.732 74.3845H58.0469V92.9236H74.732V74.3845Z" fill="#00647C"/>
<path d="M69.3891 35.4521L72.8781 55.8451H58.0469L61.5359 35.4521H69.3891Z" fill="#232C3B"/>
<path d="M71.0245 2.08203V24.3289H58.0472L54.3394 13.2055L61.755 2.08203H71.0245Z" fill="#E1221A"/>
<path d="M58.0467 24.3289V35.4523L46.9233 39.1601L35.7998 33.5984V24.3289H58.0467Z" fill="#E1221A"/>
<path d="M30.238 55.8452V46.5757L17.2607 55.8452V46.5757L6.13721 55.8452V92.9234H43.2154V46.5757L30.238 55.8452Z" fill="#11B0D7"/>
<path d="M35.8004 78.092H28.3848V85.5077H35.8004V78.092Z" fill="#00647C"/>
<path d="M35.8004 63.261H28.3848V70.6766H35.8004V63.261Z" fill="#00647C"/>
<path d="M20.9693 78.092H13.5537V85.5077H20.9693V78.092Z" fill="#00647C"/>
<path d="M20.9693 63.261H13.5537V70.6766H20.9693V63.261Z" fill="#00647C"/>
<path d="M19.1153 69.3226H19.6153V68.8226V65.1148V64.6148H19.1153H15.4075H14.9075V65.1148V68.8226V69.3226H15.4075H19.1153ZM13.5536 61.907H20.9692C21.3283 61.907 21.6727 62.0496 21.9266 62.3035C22.1805 62.5574 22.3232 62.9018 22.3232 63.2609V70.6765C22.3232 71.0356 22.1805 71.38 21.9266 71.6339C21.6727 71.8878 21.3283 72.0304 20.9692 72.0304H13.5536C13.1945 72.0304 12.8502 71.8878 12.5963 71.6339C12.3424 71.38 12.1997 71.0356 12.1997 70.6765V63.2609C12.1997 62.9018 12.3424 62.5574 12.5963 62.3035C12.8502 62.0496 13.1945 61.907 13.5536 61.907Z" fill="white" stroke="#11B0D7"/>
<path d="M33.9464 69.3226H34.4464V68.8226V65.1148V64.6148H33.9464H30.2386H29.7386V65.1148V68.8226V69.3226H30.2386H33.9464ZM28.3847 61.907H35.8003C36.1594 61.907 36.5038 62.0496 36.7577 62.3035C37.0116 62.5574 37.1542 62.9018 37.1542 63.2609V70.6765C37.1542 71.0356 37.0116 71.38 36.7577 71.6339C36.5038 71.8878 36.1594 72.0304 35.8003 72.0304H28.3847C28.0256 72.0304 27.6812 71.8878 27.4273 71.6339C27.1734 71.38 27.0308 71.0356 27.0308 70.6765V63.2609C27.0308 62.9018 27.1734 62.5574 27.4273 62.3035C27.6812 62.0496 28.0256 61.907 28.3847 61.907Z" fill="white" stroke="#11B0D7"/>
<path d="M19.1153 84.1539H19.6153V83.6539V79.9461V79.4461H19.1153H15.4075H14.9075V79.9461V83.6539V84.1539H15.4075H19.1153ZM13.5536 76.7383H20.9692C21.3283 76.7383 21.6727 76.8809 21.9266 77.1348C22.1805 77.3887 22.3232 77.7331 22.3232 78.0922V85.5078C22.3232 85.8669 22.1805 86.2113 21.9266 86.4652C21.6727 86.7191 21.3283 86.8617 20.9692 86.8617H13.5536C13.1945 86.8617 12.8502 86.7191 12.5963 86.4652C12.3424 86.2113 12.1997 85.8669 12.1997 85.5078V78.0922C12.1997 77.7331 12.3424 77.3887 12.5963 77.1348C12.8502 76.8809 13.1945 76.7383 13.5536 76.7383Z" fill="white" stroke="#11B0D7"/>
<path d="M33.9464 84.1539H34.4464V83.6539V79.9461V79.4461H33.9464H30.2386H29.7386V79.9461V83.6539V84.1539H30.2386H33.9464ZM28.3847 76.7383H35.8003C36.1594 76.7383 36.5038 76.8809 36.7577 77.1348C37.0116 77.3887 37.1542 77.7331 37.1542 78.0922V85.5078C37.1542 85.8669 37.0116 86.2113 36.7577 86.4652C36.5038 86.7191 36.1594 86.8617 35.8003 86.8617H28.3847C28.0256 86.8617 27.6812 86.7191 27.4273 86.4652C27.1734 86.2113 27.0308 85.8669 27.0308 85.5078V78.0922C27.0308 77.7331 27.1734 77.3887 27.4273 77.1348C27.6812 76.8809 28.0256 76.7383 28.3847 76.7383Z" fill="white" stroke="#11B0D7"/>
<mask id="path-17-inside-1_49_1674" fill="white">
<path d="M93.2713 37.3064C93.763 37.3064 94.2346 37.1111 94.5823 36.7634C94.9299 36.4158 95.1253 35.9442 95.1253 35.4525V26.183C95.1254 25.8387 95.0295 25.5012 94.8484 25.2084C94.6673 24.9157 94.4081 24.6792 94.1 24.5256L82.9766 18.9639C82.759 18.8548 82.5221 18.7899 82.2793 18.7727C82.0366 18.7555 81.7928 18.7865 81.5621 18.8638L72.8784 21.7577V2.08218C72.8784 1.59049 72.683 1.11894 72.3354 0.771268C71.9877 0.423593 71.5161 0.228272 71.0245 0.228272H61.7549C61.4498 0.228226 61.1493 0.303499 60.8803 0.447413C60.6112 0.591326 60.3818 0.79943 60.2125 1.05326L52.7968 12.1767C52.6405 12.4117 52.5397 12.6793 52.5021 12.9591C52.4645 13.2388 52.4911 13.5235 52.5799 13.7915L55.4739 22.4752H35.7984C35.3067 22.4752 34.8351 22.6705 34.4875 23.0182C34.1398 23.3658 33.9445 23.8374 33.9445 24.3291V33.5986C33.9443 33.9429 34.0402 34.2804 34.2213 34.5731C34.4024 34.8659 34.6616 35.1024 34.9697 35.256L46.0931 40.8177C46.3107 40.9268 46.5476 40.9917 46.7904 41.0089C47.0331 41.0261 47.2769 40.9951 47.5076 40.9178L58.3456 37.3046H59.3356L56.4806 53.9897H56.1895C54.2233 53.9917 52.3383 54.7736 50.948 56.1639C49.5577 57.5542 48.7758 59.4392 48.7739 61.4054V91.0679H45.066V46.5741C45.0656 46.2337 44.9715 45.9 44.7941 45.6095C44.6167 45.3189 44.3627 45.0829 44.0601 44.927C43.7574 44.7712 43.4177 44.7016 43.0782 44.726C42.7386 44.7503 42.4123 44.8676 42.135 45.065L32.0887 52.2415V46.5741C32.0883 46.2337 31.9942 45.9 31.8167 45.6095C31.6393 45.3189 31.3854 45.0829 31.0827 44.927C30.7801 44.7712 30.4404 44.7016 30.1008 44.726C29.7613 44.7503 29.435 44.8676 29.1577 45.065L19.1113 52.2415V46.5741C19.1112 46.2218 19.0107 45.8769 18.8216 45.5797C18.6325 45.2825 18.3627 45.0453 18.0437 44.8959C17.7246 44.7465 17.3697 44.6911 17.0203 44.7361C16.6709 44.7812 16.3416 44.9249 16.0709 45.1503L4.94749 54.4198C4.73864 54.5937 4.57058 54.8114 4.45525 55.0574C4.33991 55.3035 4.28011 55.5719 4.28008 55.8436V91.0679H2.42617C1.93449 91.0679 1.46294 91.2632 1.11526 91.6109C0.767587 91.9586 0.572266 92.4301 0.572266 92.9218C0.572266 93.4135 0.767587 93.885 1.11526 94.2327C1.46294 94.5804 1.93449 94.7757 2.42617 94.7757H93.2713C93.763 94.7757 94.2346 94.5804 94.5823 94.2327C94.9299 93.885 95.1253 93.4135 95.1253 92.9218C95.1253 92.4301 94.9299 91.9586 94.5823 91.6109C94.2346 91.2632 93.763 91.0679 93.2713 91.0679H84.0018V61.4054C83.9998 59.4392 83.2179 57.5542 81.8277 56.1639C80.4374 54.7736 78.5523 53.9917 76.5862 53.9897H74.4412L71.5862 37.3046H93.2695L93.2713 37.3064ZM59.901 33.5986V26.183H69.1705V33.5986H59.901ZM82.0052 22.6235L91.4174 27.3287V33.5986H72.8784V25.6657L82.0052 22.6235ZM62.7468 3.93609H69.1705V22.4752H59.3838L56.386 13.48L62.7486 3.93609H62.7468ZM47.0664 37.1581L37.6541 32.4529V26.183H56.1932V34.1158L47.0664 37.1581ZM7.9916 56.7131L15.4072 50.5341V55.8455C15.4077 56.1859 15.5017 56.5196 15.6792 56.8102C15.8566 57.1007 16.1106 57.3368 16.4132 57.4926C16.7159 57.6484 17.0556 57.718 17.3951 57.6936C17.7346 57.6693 18.0609 57.552 18.3383 57.3546L28.3846 50.1781V55.8455C28.385 56.1859 28.4791 56.5196 28.6565 56.8102C28.834 57.1007 29.0879 57.3368 29.3906 57.4926C29.6932 57.6484 30.0329 57.718 30.3724 57.6936C30.712 57.6693 31.0383 57.552 31.3156 57.3546L41.3619 50.1781V91.0697H7.9916V56.7131ZM72.8784 91.0697H59.901V76.2385H72.8784V91.0697ZM76.5862 91.0697V74.3846C76.5862 73.8929 76.3909 73.4213 76.0432 73.0737C75.6955 72.726 75.224 72.5307 74.7323 72.5307H58.0471C57.5554 72.5307 57.0839 72.726 56.7362 73.0737C56.3885 73.4213 56.1932 73.8929 56.1932 74.3846V91.0697H52.4854V65.115H80.294V91.0697H76.5862ZM80.294 61.4072H52.4854C52.4864 60.4242 52.8773 59.4816 53.5725 58.7865C54.2676 58.0914 55.2101 57.7004 56.1932 57.6994H76.5862C77.5693 57.7004 78.5118 58.0914 79.2069 58.7865C79.9021 59.4816 80.293 60.4242 80.294 61.4072ZM60.2458 53.9916L63.1009 37.3064H67.8265L70.6815 53.9916H60.2458Z"/>
</mask>
<path d="M93.2713 37.3064C93.763 37.3064 94.2346 37.1111 94.5823 36.7634C94.9299 36.4158 95.1253 35.9442 95.1253 35.4525V26.183C95.1254 25.8387 95.0295 25.5012 94.8484 25.2084C94.6673 24.9157 94.4081 24.6792 94.1 24.5256L82.9766 18.9639C82.759 18.8548 82.5221 18.7899 82.2793 18.7727C82.0366 18.7555 81.7928 18.7865 81.5621 18.8638L72.8784 21.7577V2.08218C72.8784 1.59049 72.683 1.11894 72.3354 0.771268C71.9877 0.423593 71.5161 0.228272 71.0245 0.228272H61.7549C61.4498 0.228226 61.1493 0.303499 60.8803 0.447413C60.6112 0.591326 60.3818 0.79943 60.2125 1.05326L52.7968 12.1767C52.6405 12.4117 52.5397 12.6793 52.5021 12.9591C52.4645 13.2388 52.4911 13.5235 52.5799 13.7915L55.4739 22.4752H35.7984C35.3067 22.4752 34.8351 22.6705 34.4875 23.0182C34.1398 23.3658 33.9445 23.8374 33.9445 24.3291V33.5986C33.9443 33.9429 34.0402 34.2804 34.2213 34.5731C34.4024 34.8659 34.6616 35.1024 34.9697 35.256L46.0931 40.8177C46.3107 40.9268 46.5476 40.9917 46.7904 41.0089C47.0331 41.0261 47.2769 40.9951 47.5076 40.9178L58.3456 37.3046H59.3356L56.4806 53.9897H56.1895C54.2233 53.9917 52.3383 54.7736 50.948 56.1639C49.5577 57.5542 48.7758 59.4392 48.7739 61.4054V91.0679H45.066V46.5741C45.0656 46.2337 44.9715 45.9 44.7941 45.6095C44.6167 45.3189 44.3627 45.0829 44.0601 44.927C43.7574 44.7712 43.4177 44.7016 43.0782 44.726C42.7386 44.7503 42.4123 44.8676 42.135 45.065L32.0887 52.2415V46.5741C32.0883 46.2337 31.9942 45.9 31.8167 45.6095C31.6393 45.3189 31.3854 45.0829 31.0827 44.927C30.7801 44.7712 30.4404 44.7016 30.1008 44.726C29.7613 44.7503 29.435 44.8676 29.1577 45.065L19.1113 52.2415V46.5741C19.1112 46.2218 19.0107 45.8769 18.8216 45.5797C18.6325 45.2825 18.3627 45.0453 18.0437 44.8959C17.7246 44.7465 17.3697 44.6911 17.0203 44.7361C16.6709 44.7812 16.3416 44.9249 16.0709 45.1503L4.94749 54.4198C4.73864 54.5937 4.57058 54.8114 4.45525 55.0574C4.33991 55.3035 4.28011 55.5719 4.28008 55.8436V91.0679H2.42617C1.93449 91.0679 1.46294 91.2632 1.11526 91.6109C0.767587 91.9586 0.572266 92.4301 0.572266 92.9218C0.572266 93.4135 0.767587 93.885 1.11526 94.2327C1.46294 94.5804 1.93449 94.7757 2.42617 94.7757H93.2713C93.763 94.7757 94.2346 94.5804 94.5823 94.2327C94.9299 93.885 95.1253 93.4135 95.1253 92.9218C95.1253 92.4301 94.9299 91.9586 94.5823 91.6109C94.2346 91.2632 93.763 91.0679 93.2713 91.0679H84.0018V61.4054C83.9998 59.4392 83.2179 57.5542 81.8277 56.1639C80.4374 54.7736 78.5523 53.9917 76.5862 53.9897H74.4412L71.5862 37.3046H93.2695L93.2713 37.3064ZM59.901 33.5986V26.183H69.1705V33.5986H59.901ZM82.0052 22.6235L91.4174 27.3287V33.5986H72.8784V25.6657L82.0052 22.6235ZM62.7468 3.93609H69.1705V22.4752H59.3838L56.386 13.48L62.7486 3.93609H62.7468ZM47.0664 37.1581L37.6541 32.4529V26.183H56.1932V34.1158L47.0664 37.1581ZM7.9916 56.7131L15.4072 50.5341V55.8455C15.4077 56.1859 15.5017 56.5196 15.6792 56.8102C15.8566 57.1007 16.1106 57.3368 16.4132 57.4926C16.7159 57.6484 17.0556 57.718 17.3951 57.6936C17.7346 57.6693 18.0609 57.552 18.3383 57.3546L28.3846 50.1781V55.8455C28.385 56.1859 28.4791 56.5196 28.6565 56.8102C28.834 57.1007 29.0879 57.3368 29.3906 57.4926C29.6932 57.6484 30.0329 57.718 30.3724 57.6936C30.712 57.6693 31.0383 57.552 31.3156 57.3546L41.3619 50.1781V91.0697H7.9916V56.7131ZM72.8784 91.0697H59.901V76.2385H72.8784V91.0697ZM76.5862 91.0697V74.3846C76.5862 73.8929 76.3909 73.4213 76.0432 73.0737C75.6955 72.726 75.224 72.5307 74.7323 72.5307H58.0471C57.5554 72.5307 57.0839 72.726 56.7362 73.0737C56.3885 73.4213 56.1932 73.8929 56.1932 74.3846V91.0697H52.4854V65.115H80.294V91.0697H76.5862ZM80.294 61.4072H52.4854C52.4864 60.4242 52.8773 59.4816 53.5725 58.7865C54.2676 58.0914 55.2101 57.7004 56.1932 57.6994H76.5862C77.5693 57.7004 78.5118 58.0914 79.2069 58.7865C79.9021 59.4816 80.293 60.4242 80.294 61.4072ZM60.2458 53.9916L63.1009 37.3064H67.8265L70.6815 53.9916H60.2458Z" fill="white" stroke="#11B0D7" stroke-width="2" mask="url(#path-17-inside-1_49_1674)"/>
</svg>
