<svg width="16" height="18" viewBox="0 0 16 18" fill="none" xmlns="http://www.w3.org/2000/svg">
<path d="M12.4591 0.630859C12.013 0.631167 11.5734 0.736917 11.176 0.939453C10.7786 1.14199 10.4347 1.4356 10.1723 1.79633C9.90996 2.15705 9.73659 2.57467 9.66633 3.01514C9.59608 3.45561 9.63093 3.90643 9.76805 4.33087L5.10006 6.93085C4.60032 6.51996 3.97402 6.29426 3.32705 6.29187C2.58663 6.3058 1.88123 6.60969 1.36252 7.13824C0.843815 7.6668 0.553223 8.37779 0.553223 9.11835C0.553223 9.85891 0.843815 10.5699 1.36252 11.0984C1.88123 11.627 2.58663 11.931 3.32705 11.9449C3.97328 11.9451 4.59969 11.7218 5.10006 11.3129L9.77505 13.9129C9.68213 14.1909 9.63387 14.4818 9.63206 14.7749C9.62854 15.4337 9.85399 16.0732 10.2699 16.5842C10.6858 17.0951 11.2662 17.4457 11.912 17.5759C12.5578 17.7062 13.2288 17.6081 13.8102 17.2983C14.3917 16.9886 14.8474 16.4865 15.0996 15.8779C15.3517 15.2692 15.3846 14.5919 15.1926 13.9617C15.0006 13.3315 14.5956 12.7876 14.0469 12.423C13.4982 12.0584 12.8399 11.8957 12.1845 11.9628C11.5292 12.0299 10.9175 12.3227 10.4541 12.7909L5.90806 10.2629C6.06884 9.90358 6.15231 9.51448 6.15306 9.12085C6.15315 8.72713 6.06964 8.33791 5.90806 7.97888L10.4471 5.45087C10.7741 5.78223 11.1779 6.02769 11.6226 6.16541C12.0673 6.30312 12.5392 6.32881 12.9962 6.24023C13.4532 6.15166 13.8813 5.95159 14.2424 5.65771C14.6035 5.36384 14.8864 4.98532 15.0659 4.55579C15.2455 4.12625 15.3161 3.65897 15.2716 3.19556C15.227 2.73214 15.0687 2.2869 14.8107 1.89941C14.5526 1.51193 14.2028 1.19423 13.7924 0.974487C13.382 0.754749 12.9236 0.639814 12.4581 0.639893L12.4591 0.630859ZM12.4591 1.93085C12.7601 1.93085 13.0543 2.02014 13.3046 2.18738C13.5549 2.35462 13.75 2.59231 13.8652 2.87042C13.9804 3.14853 14.0105 3.45458 13.9518 3.74982C13.8931 4.04506 13.7481 4.31626 13.5353 4.52911C13.3224 4.74197 13.0512 4.88689 12.756 4.94562C12.4607 5.00434 12.1547 4.97421 11.8766 4.85901C11.5985 4.74381 11.3608 4.54875 11.1936 4.29846C11.0263 4.04817 10.9371 3.7539 10.9371 3.45288C10.9364 3.25306 10.9753 3.0551 11.0517 2.87042C11.128 2.68574 11.2401 2.51802 11.3817 2.37695C11.5232 2.23589 11.6913 2.12429 11.8762 2.04858C12.0611 1.97288 12.2592 1.93453 12.4591 1.93585V1.93085ZM3.32705 7.58386C3.62765 7.58485 3.92122 7.67485 4.17075 7.84247C4.42027 8.01009 4.61457 8.24785 4.72915 8.52576C4.84373 8.80366 4.87344 9.10922 4.81456 9.40399C4.75567 9.69876 4.61082 9.96951 4.39826 10.1821C4.18571 10.3946 3.91498 10.5395 3.6202 10.5984C3.32543 10.6573 3.01982 10.6275 2.74192 10.5129C2.46401 10.3984 2.22626 10.2041 2.05864 9.95459C1.89102 9.70507 1.80104 9.4115 1.80005 9.1109C1.79872 8.91023 1.83734 8.71128 1.91367 8.5257C1.99 8.34011 2.1025 8.17157 2.24463 8.02991C2.38676 7.88824 2.55567 7.77628 2.7415 7.70056C2.92734 7.62484 3.12639 7.58687 3.32705 7.58887V7.58386ZM12.4591 13.2369C12.7601 13.2369 13.0543 13.3261 13.3046 13.4933C13.5549 13.6606 13.75 13.8983 13.8652 14.1765C13.9804 14.4546 14.0105 14.7605 13.9518 15.0558C13.8931 15.351 13.7481 15.6222 13.5353 15.8351C13.3224 16.0479 13.0512 16.1929 12.756 16.2516C12.4607 16.3104 12.1547 16.2802 11.8766 16.165C11.5985 16.0498 11.3608 15.8547 11.1936 15.6044C11.0263 15.3541 10.9371 15.0599 10.9371 14.7589C10.9365 14.5591 10.9756 14.3613 11.0519 14.1767C11.1283 13.9921 11.2405 13.8246 11.382 13.6836C11.5235 13.5426 11.6916 13.4311 11.8764 13.3555C12.0613 13.2798 12.2593 13.2415 12.4591 13.2429V13.2369Z" fill="#CC3B3A"/>
</svg>
