<svg width="30" height="30" viewBox="0 0 30 30" fill="none" xmlns="http://www.w3.org/2000/svg">
<path d="M7.7264 19.1468C12.3103 24.8098 23.4798 30.2324 26.1754 29.012C27.1512 28.5836 27.9749 27.8709 28.5384 26.9663C29.1019 26.0617 29.3789 25.0075 29.3332 23.9428C29.217 22.7259 23.0936 18.9905 21.5549 18.2833C20.0162 17.5761 18.2469 19.8554 17.3949 20.8397C16.5088 21.783 13.1194 18.9102 11.6549 17.4573C11.6549 17.4573 7.80331 13.0571 8.68933 12.1139C9.57534 11.1707 11.7712 9.2853 11.0014 7.74662C10.2316 6.20794 6.33975 0.0897362 5.10774 0.00390625C4.05064 0.00821418 3.02066 0.338379 2.15871 0.950354C1.29676 1.56233 0.644938 2.42643 0.292332 3.42299C-0.785012 6.21336 4.37644 16.865 10.1163 21.313" fill="#E1221A"/>
</svg>
