<svg width="39" height="39" viewBox="0 0 39 39" fill="none" xmlns="http://www.w3.org/2000/svg">
<path fill-rule="evenodd" clip-rule="evenodd" d="M19.1824 0.0375977C29.6896 0.0375977 38.2109 8.55892 38.2109 19.0662C38.2109 29.5734 29.6896 38.0947 19.1824 38.0947C8.67589 38.0947 0.153809 29.5734 0.153809 19.0662C0.153809 8.55968 8.67589 0.0375977 19.1824 0.0375977ZM6.29128 27.7159C8.78251 25.9213 10.9755 23.6675 14.2395 22.4682C15.7169 23.2454 17.3973 23.6849 19.1824 23.6849C20.9449 23.6849 22.6087 23.2569 24.072 22.4976C27.5726 23.7952 30.066 26.2433 32.0746 27.7143C26.2627 36.3565 12.2313 36.5498 6.29165 27.7158L6.29128 27.7159ZM19.1824 5.77788C23.1954 5.77788 26.4502 9.03275 26.4502 13.0463C26.4502 17.0599 23.1954 20.3142 19.1824 20.3142C15.1689 20.3142 11.9139 17.0599 11.9139 13.0463C11.9139 9.03282 15.1688 5.77788 19.1824 5.77788Z" fill="white"/>
</svg>
