<svg width="17" height="17" viewBox="0 0 17 17" fill="none" xmlns="http://www.w3.org/2000/svg">
<path d="M8.87354 10.3835C6.20354 10.3835 0.873535 11.7235 0.873535 14.3835V16.3835H16.8735V14.3835C16.8735 11.7225 11.5435 10.3835 8.87354 10.3835ZM8.87354 8.38352C9.66466 8.38352 10.438 8.14873 11.0958 7.7092C11.7536 7.26968 12.2663 6.64518 12.569 5.91428C12.8718 5.18338 12.951 4.37917 12.7967 3.60325C12.6424 2.82732 12.2614 2.11432 11.702 1.55491C11.1426 0.995496 10.4298 0.61452 9.65387 0.460179C8.87795 0.305838 8.07368 0.385456 7.34277 0.688206C6.61187 0.990957 5.98719 1.50355 5.54767 2.16135C5.10814 2.81915 4.87354 3.59239 4.87354 4.38352C4.87354 5.44438 5.29496 6.46199 6.0451 7.21213C6.79525 7.96228 7.81267 8.38352 8.87354 8.38352Z" fill="#D7D8DA"/>
</svg>
