<svg width="17" height="17" viewBox="0 0 17 17" fill="none" xmlns="http://www.w3.org/2000/svg">
<path d="M8.5127 10.8683C5.8427 10.8683 0.512695 12.2083 0.512695 14.8683V16.8683H16.5127V14.8683C16.5127 12.2073 11.1827 10.8683 8.5127 10.8683ZM8.5127 8.86826C9.30382 8.86826 10.0772 8.63347 10.735 8.19394C11.3928 7.75442 11.9054 7.12993 12.2082 6.39902C12.5109 5.66812 12.5902 4.86391 12.4359 4.08799C12.2815 3.31206 11.9005 2.59906 11.3411 2.03965C10.7817 1.48024 10.069 1.09926 9.29303 0.94492C8.51711 0.790579 7.71284 0.870197 6.98193 1.17295C6.25103 1.4757 5.62635 1.9883 5.18683 2.64609C4.7473 3.30389 4.5127 4.07713 4.5127 4.86826C4.5127 5.92913 4.93412 6.94673 5.68427 7.69687C6.43441 8.44702 7.45183 8.86826 8.5127 8.86826Z" fill="#D7D8DA"/>
</svg>
