<svg width="22" height="22" viewBox="0 0 22 22" fill="none" xmlns="http://www.w3.org/2000/svg">
<path d="M18.9517 10.3824H17.4517V6.38245C17.4498 5.85258 17.2385 5.34501 16.8638 4.97034C16.4892 4.59566 15.9815 4.38429 15.4517 4.38245H11.4517V2.88245C11.4517 2.21941 11.1883 1.58371 10.7194 1.11487C10.2506 0.646027 9.6147 0.382446 8.95166 0.382446C8.28862 0.382446 7.65274 0.646027 7.1839 1.11487C6.71506 1.58371 6.45166 2.21941 6.45166 2.88245V4.38245H2.45166C1.92296 4.38509 1.41681 4.59702 1.0439 4.9718C0.670987 5.34659 0.461648 5.85374 0.461655 6.38245V10.1823H1.95166C2.30623 10.1823 2.65733 10.2521 2.98491 10.3878C3.31249 10.5235 3.61014 10.7225 3.86086 10.9733C4.11157 11.224 4.31045 11.5217 4.44614 11.8492C4.58182 12.1768 4.65166 12.5279 4.65166 12.8824C4.65166 13.237 4.58182 13.5881 4.44614 13.9156C4.31045 14.2432 4.11157 14.5409 3.86086 14.7916C3.61014 15.0423 3.31249 15.2414 2.98491 15.3771C2.65733 15.5128 2.30623 15.5826 1.95166 15.5826H0.45166V19.3824C0.453243 19.9124 0.66447 20.4203 1.0392 20.795C1.41393 21.1698 1.92171 21.3809 2.45166 21.3824H6.25166V19.8824C6.25166 19.1664 6.53612 18.4796 7.04247 17.9733C7.54881 17.4669 8.23558 17.1823 8.95166 17.1823C9.66774 17.1823 10.3545 17.4669 10.8609 17.9733C11.3672 18.4796 11.6517 19.1664 11.6517 19.8824V21.3824H15.4517C15.9816 21.3809 16.4894 21.1698 16.8641 20.795C17.2389 20.4203 17.4501 19.9124 17.4517 19.3824V15.3824H18.9517C19.6147 15.3824 20.2506 15.1189 20.7194 14.65C21.1883 14.1812 21.4517 13.5455 21.4517 12.8824C21.4517 12.2194 21.1883 11.5837 20.7194 11.1149C20.2506 10.646 19.6147 10.3824 18.9517 10.3824Z" fill="#D7D8DA"/>
</svg>
